<?xml version="1.0" encoding="UTF-8" standalone="no"?>
<svg
   xmlns:dc="http://purl.org/dc/elements/1.1/"
   xmlns:cc="http://creativecommons.org/ns#"
   xmlns:rdf="http://www.w3.org/1999/02/22-rdf-syntax-ns#"
   xmlns:svg="http://www.w3.org/2000/svg"
   xmlns="http://www.w3.org/2000/svg"
   xmlns:sodipodi="http://sodipodi.sourceforge.net/DTD/sodipodi-0.dtd"
   xmlns:inkscape="http://www.inkscape.org/namespaces/inkscape"
   version="1.1"
   x="0px"
   y="0px"
   viewBox="0 0 85 70"
   enable-background="new 0 0 100 100"
   xml:space="preserve"
   id="svg2"
   inkscape:version="0.91 r13725"
   sodipodi:docname="noun_30806_cc.svg"
   width="85"
   height="70"><metadata
     id="metadata52"><rdf:RDF><cc:Work
         rdf:about=""><dc:format>image/svg+xml</dc:format><dc:type
           rdf:resource="http://purl.org/dc/dcmitype/StillImage" /><dc:title></dc:title></cc:Work></rdf:RDF></metadata><defs
     id="defs50" /><sodipodi:namedview
     pagecolor="#ffffff"
     bordercolor="#666666"
     borderopacity="1"
     objecttolerance="10"
     gridtolerance="10"
     guidetolerance="10"
     inkscape:pageopacity="0"
     inkscape:pageshadow="2"
     inkscape:window-width="890"
     inkscape:window-height="626"
     id="namedview48"
     showgrid="false"
     inkscape:zoom="1.888"
     inkscape:cx="84.957627"
     inkscape:cy="62.5"
     inkscape:window-x="445"
     inkscape:window-y="111"
     inkscape:window-maximized="0"
     inkscape:current-layer="svg2" /><path
     d="m 43.042663,58.9795 c -0.853,0 -1.544,-0.691 -1.544,-1.544 l 0,-52.0859998 c 0,-0.853 0.691,-1.544 1.544,-1.544 0.853,0 1.544,0.691 1.544,1.544 l 0,52.0849998 c 0,0.853 -0.691,1.545 -1.544,1.545 z"
     id="path4"
     inkscape:connector-curvature="0" /><g
     id="g6"
     transform="translate(-7.500337,-13.1455)"><line
       x1="18.625"
       y1="26.601999"
       x2="8.8719997"
       y2="50.912998"
       id="line8" /><path
       d="M 8.872,51.958 C 8.743,51.958 8.611,51.934 8.483,51.883 7.947,51.668 7.688,51.06 7.902,50.525 l 9.753,-24.312 c 0.215,-0.536 0.823,-0.795 1.359,-0.581 0.535,0.215 0.795,0.823 0.581,1.358 L 9.841,51.302 C 9.678,51.71 9.286,51.958 8.872,51.958 Z"
       id="path10"
       inkscape:connector-curvature="0" /></g><g
     id="g12"
     transform="translate(-7.500337,-13.1455)"><line
       x1="18.625"
       y1="26.601999"
       x2="25.659"
       y2="51.438"
       id="line14" /><path
       d="m 25.658,52.484 c -0.456,0 -0.875,-0.301 -1.004,-0.761 L 17.62,26.886 c -0.158,-0.555 0.165,-1.132 0.72,-1.29 0.554,-0.156 1.133,0.165 1.29,0.721 l 7.034,24.837 c 0.157,0.555 -0.166,1.132 -0.721,1.29 -0.095,0.027 -0.191,0.04 -0.285,0.04 z"
       id="path16"
       inkscape:connector-curvature="0" /></g><path
     d="m 18.934663,39.3865 c 0,5.174 -4.194,9.368 -9.368,9.368 -5.174,0 -9.36800003,-4.194 -9.36800003,-9.368 l 18.73600003,0 z"
     id="path18"
     inkscape:connector-curvature="0" /><path
     d="m 33.674663,62.1185 c 0,-5.173 4.195,-9.367 9.368,-9.367 5.174,0 9.369,4.194 9.369,9.368 l -18.737,-0.001 z"
     id="path20"
     inkscape:connector-curvature="0" /><path
     d="m 20.856663,68.6235 0,-3.239 c 0,-0.707 0.618,-1.28 1.381,-1.28 l 40.752,0 c 0.764,0 1.381,0.573 1.381,1.28 l 0,3.238 -43.514,0 z"
     id="path22"
     inkscape:connector-curvature="0" /><g
     id="g24"
     transform="translate(-7.500337,-13.1455)"><line
       x1="84.223"
       y1="27.587"
       x2="74.469002"
       y2="51.897999"
       id="line26" /><path
       d="m 74.469,52.943 c -0.129,0 -0.261,-0.024 -0.389,-0.075 -0.535,-0.215 -0.795,-0.823 -0.58,-1.359 l 9.753,-24.312 c 0.215,-0.535 0.823,-0.795 1.359,-0.581 0.535,0.215 0.795,0.823 0.581,1.359 L 75.44,52.287 c -0.165,0.408 -0.557,0.656 -0.971,0.656 z"
       id="path28"
       inkscape:connector-curvature="0" /></g><g
     id="g30"
     transform="translate(-7.500337,-13.1455)"><line
       x1="84.223"
       y1="27.587"
       x2="91.255997"
       y2="52.424"
       id="line32" /><path
       d="m 91.256,53.469 c -0.456,0 -0.875,-0.3 -1.004,-0.76 L 83.218,27.872 c -0.158,-0.555 0.165,-1.133 0.72,-1.29 0.554,-0.156 1.133,0.166 1.29,0.72 l 7.034,24.837 c 0.157,0.555 -0.166,1.133 -0.721,1.29 -0.095,0.027 -0.191,0.04 -0.285,0.04 z"
       id="path34"
       inkscape:connector-curvature="0" /></g><path
     d="m 84.531663,40.3715 c 0,5.174 -4.194,9.368 -9.369,9.368 -5.174,0 -9.369,-4.194 -9.369,-9.368 l 18.738,0 z"
     id="path36"
     inkscape:connector-curvature="0" /><path
     d="m 39.624663,4.7855002 c 0,-1.883 1.526,-3.409 3.41,-3.409 1.884,0 3.409,1.526 3.409,3.409 l -6.819,0 z"
     id="path38"
     inkscape:connector-curvature="0" /><path
     d="m 11.125663,15.0005 c -0.562,0 -1.103,-0.308 -1.376,-0.842 -0.388,-0.759 -0.087,-1.689 0.673,-2.078 13.677,-6.9879998 31.712,-3.7419998 32.473,-3.6009998 0.838,0.156 1.391,0.9609996 1.235,1.7999998 -0.155,0.838 -0.96,1.393 -1.799,1.236 -0.176,-0.032 -17.776,-3.1879998 -30.504,3.315 -0.225,0.116 -0.465,0.17 -0.702,0.17 z"
     id="path40"
     inkscape:connector-curvature="0" /><path
     d="m 74.531663,14.6125 c -0.236,0 -0.476,-0.055 -0.701,-0.169 -12.728,-6.5029998 -30.329,-3.348 -30.505,-3.315 -0.837,0.159 -1.644,-0.398 -1.799,-1.2360002 -0.156,-0.838 0.397,-1.6439996 1.235,-1.7999996 0.761,-0.142 18.796,-3.387 32.474,3.6009998 0.76,0.388 1.061,1.318 0.673,2.078 -0.274,0.533 -0.815,0.841 -1.377,0.841 z"
     id="path42"
     inkscape:connector-curvature="0" /></svg>