<?xml version="1.0" encoding="UTF-8" standalone="no"?>
<svg
   xmlns:dc="http://purl.org/dc/elements/1.1/"
   xmlns:cc="http://creativecommons.org/ns#"
   xmlns:rdf="http://www.w3.org/1999/02/22-rdf-syntax-ns#"
   xmlns:svg="http://www.w3.org/2000/svg"
   xmlns="http://www.w3.org/2000/svg"
   xmlns:sodipodi="http://sodipodi.sourceforge.net/DTD/sodipodi-0.dtd"
   xmlns:inkscape="http://www.inkscape.org/namespaces/inkscape"
   version="1.1"
   x="0px"
   y="0px"
   viewBox="0 0 20 21"
   xml:space="preserve"
   id="svg2"
   inkscape:version="0.91 r13725"
   sodipodi:docname="banking.svg"
   width="20"
   height="21"><metadata
     id="metadata76"><rdf:RDF><cc:Work
         rdf:about=""><dc:format>image/svg+xml</dc:format><dc:type
           rdf:resource="http://purl.org/dc/dcmitype/StillImage" /><dc:title></dc:title></cc:Work></rdf:RDF></metadata><defs
     id="defs74" /><sodipodi:namedview
     pagecolor="#ffffff"
     bordercolor="#666666"
     borderopacity="1"
     objecttolerance="10"
     gridtolerance="10"
     guidetolerance="10"
     inkscape:pageopacity="0"
     inkscape:pageshadow="2"
     inkscape:window-width="886"
     inkscape:window-height="641"
     id="namedview72"
     showgrid="false"
     inkscape:zoom="5.9"
     inkscape:cx="13.457627"
     inkscape:cy="20"
     inkscape:window-x="0"
     inkscape:window-y="0"
     inkscape:window-maximized="0"
     inkscape:current-layer="svg2" /><style
     type="text/css"
     id="style4">
	.st0{display:none;}
	.st1{display:inline;}
	.st2{fill:#2C3E50;}
	.st3{fill:none;stroke:#414753;stroke-miterlimit:10;}
</style><g
     class="st0"
     id="g6"
     style="display:none"
     transform="translate(0,-19)"><g
       class="st1"
       id="g8"
       style="display:inline"><g
         id="g10"><g
           id="g12"><path
             class="st2"
             d="m 9.5,6.8 6.6,5 -13.1,0 6.5,-5 m 0,-1.2 -9.5,7.2 19.1,0 -9.6,-7.2 0,0 z"
             id="path14"
             inkscape:connector-curvature="0"
             style="fill:#2c3e50" /></g></g><g
         id="g16"><g
           id="g18"><path
             class="st2"
             d="m 17.8,24 0,1.5 -16.5,0 0,-1.5 16.5,0 m 1,-1 -18.5,0 0,3.5 18.5,0 0,-3.5 0,0 z"
             id="path20"
             inkscape:connector-curvature="0"
             style="fill:#2c3e50" /></g></g><g
         id="g22"><g
           id="g24"><path
             class="st2"
             d="m 15.4,14.9 0,6 -1.4,0 0,-6 1.4,0 m 1,-1 -3.4,0 0,8 3.4,0 0,-8 0,0 z"
             id="path26"
             inkscape:connector-curvature="0"
             style="fill:#2c3e50" /></g></g><g
         id="g28"><g
           id="g30"><path
             class="st2"
             d="m 10.2,14.9 0,6 -1.4,0 0,-6 1.4,0 m 1,-1 -3.4,0 0,8 3.4,0 0,-8 0,0 z"
             id="path32"
             inkscape:connector-curvature="0"
             style="fill:#2c3e50" /></g></g><g
         id="g34"><g
           id="g36"><path
             class="st2"
             d="m 5,14.9 0,6 -1.3,0 0,-6 1.3,0 m 1,-1 -3.3,0 0,8 3.3,0 0,-8 0,0 z"
             id="path38"
             inkscape:connector-curvature="0"
             style="fill:#2c3e50" /></g></g></g><g
       class="st1"
       id="g40"
       style="display:inline"><g
         id="g42"><g
           id="g44"><g
             id="g46"><line
               class="st3"
               x1="26.5"
               y1="7.6999998"
               x2="26.5"
               y2="23.299999"
               id="line48"
               style="fill:none;stroke:#414753;stroke-miterlimit:10" /><polyline
               class="st3"
               points="31.6,18.1 26.5,23.3 21.2,18.1      "
               id="polyline50"
               style="fill:none;stroke:#414753;stroke-miterlimit:10" /></g></g></g></g></g><path
     d="m 0.45,7.25 19.1,0 -9.6,-7.2 -9.5,7.2 z m 3,-1 6.6,-5 6.6,5 -13.2,0 z"
     id="path56"
     inkscape:connector-curvature="0" /><path
     d="m 0.75,20.95 18.5,0 0,-3.5 -18.5,0 0,3.5 z m 1,-2.5 16.5,0 0,1.5 -16.5,0 0,-1.5 z"
     id="path58"
     inkscape:connector-curvature="0" /><path
     d="m 13.45,8.35 0,8 3.4,0 0,-8 c 0,0 -3.4,0 -3.4,0 z m 2.4,7 -1.4,0 0,-6 1.4,0 0,6 z"
     id="path60"
     inkscape:connector-curvature="0" /><path
     d="m 8.25,8.35 0,8 3.4,0 0,-8 c 0,0 -3.4,0 -3.4,0 z m 2.4,7 -1.4,0 0,-6 1.4,0 c 0,0 0,6 0,6 z"
     id="path62"
     inkscape:connector-curvature="0" /><path
     d="m 3.15,8.35 0,8 3.3,0 0,-8 c 0,0 -3.3,0 -3.3,0 z m 2.3,7 -1.3,0 0,-6 1.3,0 0,6 z"
     id="path64"
     inkscape:connector-curvature="0" /></svg>