<?xml version="1.0" encoding="UTF-8" standalone="no"?>
<svg
   xmlns:dc="http://purl.org/dc/elements/1.1/"
   xmlns:cc="http://creativecommons.org/ns#"
   xmlns:rdf="http://www.w3.org/1999/02/22-rdf-syntax-ns#"
   xmlns:svg="http://www.w3.org/2000/svg"
   xmlns="http://www.w3.org/2000/svg"
   xmlns:sodipodi="http://sodipodi.sourceforge.net/DTD/sodipodi-0.dtd"
   xmlns:inkscape="http://www.inkscape.org/namespaces/inkscape"
   version="1.1"
   x="0px"
   y="0px"
   viewBox="0 0 100 100"
   enable-background="new 0 0 100 100"
   xml:space="preserve"
   id="svg2"
   inkscape:version="0.91 r13725"
   sodipodi:docname="bell.svg"
   width="100"
   height="100"><metadata
     id="metadata14"><rdf:RDF><cc:Work
         rdf:about=""><dc:format>image/svg+xml</dc:format><dc:type
           rdf:resource="http://purl.org/dc/dcmitype/StillImage" /><dc:title></dc:title></cc:Work></rdf:RDF></metadata><defs
     id="defs12" /><sodipodi:namedview
     pagecolor="#ffffff"
     bordercolor="#666666"
     borderopacity="1"
     objecttolerance="10"
     gridtolerance="10"
     guidetolerance="10"
     inkscape:pageopacity="0"
     inkscape:pageshadow="2"
     inkscape:window-width="978"
     inkscape:window-height="557"
     id="namedview10"
     showgrid="false"
     inkscape:zoom="1.888"
     inkscape:cx="-9.3220339"
     inkscape:cy="62.5"
     inkscape:window-x="20"
     inkscape:window-y="66"
     inkscape:window-maximized="0"
     inkscape:current-layer="svg2"
     height="100px" /><path
     d="m 65.806873,20.505765 1.1,-2.9 c 0.4,-1 -0.2,-2.2 -1.2,-2.5 -1,-0.4 -2.2,0.1 -2.6,1.2 l -1.1,2.8 c -12.9,-3.5 -26.6,3.3 -31.3,15.9 l -6.5,17.8 -12,5.5 c -0.7,0.3 -1.2,1.1 -1.2,1.9 0,0.8 0.5,1.5 1.3,1.8 l 21.7,7.8 c -0.9,5 2,10.2 7.1,12 5,1.8 10.6,-0.3 13.2,-4.7 l 21.7,7.8 c 0,0 0,0 0,0 1,0.4 2.2,-0.2 2.6,-1.2 0.2,-0.6 0.1,-1.2 -0.2,-1.7 l -5.5,-11.7 6.5,-17.8 c 4.7,-12.6 -1.4,-26.5 -13.6,-32 z m -23.3,57.5 c -3,-1.1 -4.8,-3.9 -4.6,-6.9 l 12.6,4.5 c -1.8,2.5 -5.1,3.5 -8,2.4 z m 33.2,-26.8 -6.8,18.5 c -0.2,0.5 -0.2,1 0.1,1.5 l 3.9,8.3 -18.9,-6.7 -16.9,-6.1 -18.9,-6.8 8.4,-3.9 c 0.5,-0.2 0.8,-0.6 1,-1.1 l 6.8,-18.5 c 4.1,-11.2 16.8,-17 28.1,-12.9 11.5,4 17.3,16.5 13.2,27.7 z"
     id="path4"
     inkscape:connector-curvature="0" /></svg>