<?xml version="1.0" encoding="UTF-8" standalone="no"?>
<svg width="27px" height="27px" viewBox="0 0 27 27" version="1.1" xmlns="http://www.w3.org/2000/svg" xmlns:xlink="http://www.w3.org/1999/xlink">
    <!-- Generator: Sketch 3.7.2 (28276) - http://www.bohemiancoding.com/sketch -->
    <title>noun_70962_cc</title>
    <desc>Created with Sketch.</desc>
    <defs></defs>
    <g id="Payment-methods" stroke="none" stroke-width="1" fill="none" fill-rule="evenodd">
        <g id="Desktop" transform="translate(-540.000000, -274.000000)" fill="#57AAE2">
            <g id="noun_70962_cc" transform="translate(540.000000, 274.000000)">
                <g id="Group">
                    <path d="M17.1620357,13.2608571 C17.8071429,12.7276071 18.2375357,11.9291786 18.2375357,10.78875 C18.2375357,8.60817857 16.569,7.86825 15.4263214,7.73807143 C15.4263214,7.73003571 15.4285714,7.72232143 15.4285714,7.71428571 L15.4285714,6.10714286 C15.4285714,5.75228571 15.1405714,5.46428571 14.7857143,5.46428571 C14.4308571,5.46428571 14.1428571,5.75228571 14.1428571,6.10714286 L14.1428571,7.71428571 L12.8571429,7.71428571 L12.8571429,6.10714286 C12.8571429,5.75228571 12.5691429,5.46428571 12.2142857,5.46428571 C11.8594286,5.46428571 11.5714286,5.75228571 11.5714286,6.10714286 L11.5714286,7.71428571 L10.6071429,7.71428571 L9.32142857,7.71428571 C8.96657143,7.71428571 8.67857143,8.00228571 8.67857143,8.35714286 C8.67857143,8.712 8.96657143,9 9.32142857,9 L9.96428571,9 L9.96428571,13.5 L9.96428571,18.3214286 L9.32142857,18.3214286 C8.96657143,18.3214286 8.67857143,18.6094286 8.67857143,18.9642857 C8.67857143,19.3191429 8.96657143,19.6071429 9.32142857,19.6071429 L10.6071429,19.6071429 L11.5714286,19.6071429 L11.5714286,21.2142857 C11.5714286,21.5691429 11.8594286,21.8571429 12.2142857,21.8571429 C12.5691429,21.8571429 12.8571429,21.5691429 12.8571429,21.2142857 L12.8571429,19.6071429 L14.1428571,19.6071429 L14.1428571,21.2142857 C14.1428571,21.5691429 14.4308571,21.8571429 14.7857143,21.8571429 C15.1405714,21.8571429 15.4285714,21.5691429 15.4285714,21.2142857 L15.4285714,19.6071429 C15.4285714,19.5920357 15.4253571,19.5782143 15.4240714,19.5634286 C17.1459643,19.3538571 18.8723571,18.3645 18.8723571,16.0865357 C18.8723571,14.5539643 18.0626786,13.7008929 17.1620357,13.2608571 L17.1620357,13.2608571 Z M15.0602143,9 C15.3758571,9 16.9515,9.08646429 16.9515,10.78875 C16.9515,12.5884286 15.3199286,12.8571429 14.3472857,12.8571429 L11.25,12.8571429 L11.25,9 L15.0602143,9 L15.0602143,9 Z M14.7018214,18.3214286 L11.25,18.3214286 L11.25,14.1428571 L14.3476071,14.1428571 L15.4629643,14.1428571 C15.68025,14.1460714 17.5869643,14.2264286 17.5869643,16.0865357 C17.5866429,18.1603929 15.37875,18.3214286 14.7018214,18.3214286 L14.7018214,18.3214286 Z" id="Shape" transform="translate(13.775464, 13.660714) rotate(-345.000000) translate(-13.775464, -13.660714) "></path>
                    <path d="M13.5,0 C6.18235714,0 0,6.18203571 0,13.5 C0,20.8179643 6.18235714,27 13.5,27 C20.8176429,27 27,20.8179643 27,13.5 C27,6.18203571 20.8176429,0 13.5,0 L13.5,0 Z M13.5,25.7142857 C6.87921429,25.7142857 1.28571429,20.1207857 1.28571429,13.5 C1.28571429,6.87921429 6.87921429,1.28571429 13.5,1.28571429 C20.1207857,1.28571429 25.7142857,6.87921429 25.7142857,13.5 C25.7142857,20.1207857 20.1207857,25.7142857 13.5,25.7142857 L13.5,25.7142857 Z" id="Shape"></path>
                </g>
            </g>
        </g>
    </g>
</svg>