<?xml version="1.0" encoding="UTF-8" standalone="no"?>
<svg width="38px" height="32px" viewBox="0 0 38 32" version="1.1" xmlns="http://www.w3.org/2000/svg" xmlns:xlink="http://www.w3.org/1999/xlink">
    <!-- Generator: Sketch 3.7.2 (28276) - http://www.bohemiancoding.com/sketch -->
    <title>noun_356371_cc</title>
    <desc>Created with Sketch.</desc>
    <defs></defs>
    <g id="Payment-methods" stroke="none" stroke-width="1" fill="none" fill-rule="evenodd">
        <g id="Desktop" transform="translate(-724.000000, -270.000000)" fill="#72B8E6">
            <g id="noun_356371_cc" transform="translate(724.000000, 270.000000)">
                <g id="Group">
                    <g id="Shape">
                        <path d="M37.3265556,11.2179167 L27.2153889,1.10727778 C27.0327778,0.918861111 26.7720556,0.809083333 26.50025,0.806444444 C26.2279167,0.818055556 25.9566389,0.910944444 25.7650556,1.10147222 L22.021,4.84552778 L12.1885,0.42275 C11.6839444,0.196861111 11.0775278,0.423277778 10.8342222,0.936805556 L0.455472222,24.03025 C0.23275,24.5311111 0.456527778,25.1354167 0.970055556,25.3845278 L14.0183056,31.2439167 C14.1455,31.3025 14.2853611,31.3315278 14.4268056,31.3315278 C14.5518889,31.3315278 14.6785556,31.3088333 14.7978333,31.2634444 C15.0532778,31.1652778 15.26175,30.9715833 15.3683611,30.7314444 L16.2296944,28.8177222 L17.9840278,30.5715278 C18.1808889,30.7620556 18.4384444,30.8570556 18.6981111,30.8570556 C18.9593611,30.8570556 19.2211389,30.7599444 19.42275,30.5651944 L37.3265556,12.6619167 C37.5165556,12.4719167 37.6242222,12.22175 37.6300278,11.9583889 C37.6358333,11.6823611 37.5276389,11.419 37.3265556,11.2179167 L37.3265556,11.2179167 Z M17.1005278,9.76547222 C16.7738333,9.54538889 16.4281389,9.35486111 16.06925,9.196 C15.1303333,8.77588889 14.1365278,8.56266667 13.1152778,8.56266667 C12.5183611,8.56266667 11.9293611,8.6355 11.3546111,8.77905556 L13.10525,4.87561111 L19.2348611,7.63008333 L17.1005278,9.76547222 L17.1005278,9.76547222 Z M14.4526667,30.2823056 L1.41866667,24.4625 L11.7573056,1.38541667 L21.223,5.64352778 L20.0344444,6.83208333 L13.4773333,3.88602778 C12.9865,3.66647222 12.3790278,3.91452778 12.1568333,4.41327778 L9.89477778,9.45566667 C9.80505556,9.65516667 9.84780556,9.88844444 10.0019167,10.0436111 C10.1560278,10.1987778 10.3898333,10.2431111 10.5888056,10.1544444 C12.2038056,9.44194444 14.0325556,9.44088889 15.6401667,10.1613056 C15.8803056,10.2673889 16.1104167,10.3940556 16.3331389,10.5328611 L12.3663611,14.4996389 L10.9155,11.761 C10.7788056,11.5029167 10.4573889,11.40475 10.2019444,11.5414444 C9.94438889,11.6781389 9.84569444,11.9974444 9.98238889,12.255 L11.5002778,15.1197778 L8.35155556,15.87925 C8.06813889,15.9473333 7.89397222,16.2323333 7.96205556,16.51575 C8.02063889,16.7574722 8.23702778,16.9200278 8.47505556,16.9200278 C8.51569444,16.9200278 8.55791667,16.9152778 8.59908333,16.90525 L10.3951111,16.4719444 L7.85386111,19.0131944 C7.83275,19.0348333 7.81797222,19.0596389 7.79897222,19.0828611 C7.54458333,18.66275 7.33452778,18.2141389 7.18727778,17.7338611 C7.12288889,17.5238056 6.93447222,17.3760278 6.71544444,17.3617778 C6.49747222,17.3533333 6.29163889,17.4720833 6.20086111,17.6721111 L3.933,22.7108056 C3.82375,22.9509444 3.81741667,23.2364722 3.91663889,23.4929722 C4.01375,23.7463056 4.20533333,23.9537222 4.44547222,24.0629722 L12.6972778,27.7685 C12.8260556,27.8249722 12.9638056,27.8550556 13.1063056,27.8550556 C13.51375,27.8550556 13.8831944,27.6180833 14.0452222,27.2528611 L14.23575,26.8258889 L15.4332778,28.0228889 L14.4526667,30.2823056 L14.4526667,30.2823056 Z M13.4388056,26.0268333 L13.0978611,26.7894722 L4.89672222,23.1456944 L6.66161111,19.22325 C7.31711111,20.4883333 8.34152778,21.5280556 9.63511111,22.2231389 L13.2181944,25.8056944 L13.4388056,26.0268333 L13.4388056,26.0268333 Z M18.7245,29.8194444 L10.3265,21.4214444 L8.60752778,19.7515556 L12.4671667,15.8924444 C12.4919722,15.8681667 12.5130833,15.8417778 12.5315556,15.8148611 C12.5584722,15.7963889 12.5843333,15.7758056 12.6080833,15.7515278 L17.5285556,10.8315833 C17.5285556,10.8315833 17.5290833,10.8315833 17.5290833,10.8310556 L20.5231667,7.83697222 C20.5231667,7.83697222 20.5236944,7.83697222 20.5236944,7.83644444 L22.51025,5.84988889 L26.4627778,1.84775 L36.5802778,11.9161667 L18.7245,29.8194444 L18.7245,29.8194444 Z"></path>
                        <path d="M21.8647778,8.72786111 C21.7106667,8.8825 21.6673889,9.11630556 21.7565833,9.31580556 C21.8463056,9.51477778 22.0553056,9.65675 22.2669444,9.62719444 C22.9398611,9.59447222 23.6148889,9.66466667 24.2656389,9.84463889 C25.3053611,10.1328056 26.2184167,10.6658611 26.98,11.4263889 C28.2324167,12.6851389 28.8884444,14.402 28.7807778,16.1368056 C28.7675833,16.3563611 28.8905556,16.5611389 29.0905833,16.6513889 C29.16025,16.6825278 29.2341389,16.6978333 29.3075,16.6978333 C29.4447222,16.6978333 29.5798333,16.644 29.6811667,16.5426667 L33.5809167,12.6360556 C33.9725278,12.2444444 33.9725278,11.5831389 33.5809167,11.1915278 L27.1900556,4.80066667 C26.8206111,4.43122222 26.1672222,4.43386111 25.7655833,4.82019444 L21.8647778,8.72786111 L21.8647778,8.72786111 Z M32.8335833,11.8897778 L29.7978056,14.9313611 C29.6088611,13.3475 28.8858056,11.8454444 27.7268056,10.6811667 C26.847,9.80136111 25.7476389,9.16011111 24.5474722,8.82708333 C24.1922778,8.72891667 23.8323333,8.65819444 23.4681667,8.61438889 L26.4849444,5.58811111 L32.8335833,11.8897778 L32.8335833,11.8897778 Z"></path>
                        <path d="M24.5490556,17.0393056 L25.5280833,16.0608056 C25.7344444,15.8544444 25.7344444,15.5208889 25.5280833,15.3145278 C25.3217222,15.1081667 24.9881667,15.1081667 24.7818056,15.3145278 L23.8027778,16.2935556 L23.5008889,15.9916667 L24.4793889,15.0131667 C24.68575,14.8068056 24.68575,14.47325 24.4793889,14.2668889 C24.2730278,14.0605278 23.9394722,14.0605278 23.7331111,14.2668889 L22.7546111,15.2453889 L22.4368889,14.9276667 C22.4421667,14.8854444 22.4516667,14.8448056 22.4463889,14.801 L21.9961944,11.24325 C21.9597778,10.9540278 21.6911389,10.7508333 21.4066667,10.7856667 C21.1169167,10.8220833 20.9121389,11.0859722 20.9490833,11.3751944 L21.3565278,14.59675 L18.1349722,14.1893056 C17.8436389,14.1586944 17.5818611,14.3571389 17.5449167,14.6463611 C17.5085,14.9355833 17.71275,15.2 18.0019722,15.2364167 L21.7148889,15.7066667 C21.7175278,15.7071944 21.7206944,15.7071944 21.7233333,15.7071944 L22.0083333,15.9916667 L21.0287778,16.9712222 C20.8224167,17.1775833 20.8224167,17.5111389 21.0287778,17.7175 C21.1316944,17.8204167 21.2668056,17.8721389 21.4019167,17.8721389 C21.5370278,17.8721389 21.6721389,17.8204167 21.7750556,17.7175 L22.7546111,16.7379444 L23.0559722,17.0393056 L22.0758889,18.0193889 C21.8695278,18.22575 21.8695278,18.5593056 22.0758889,18.7656667 C22.1788056,18.8685833 22.3139167,18.9203056 22.4490278,18.9203056 C22.5841389,18.9203056 22.71925,18.8685833 22.8221667,18.7656667 L23.80225,17.7855833 L25.0446389,19.0285 C25.1475556,19.1314167 25.2826667,19.1831389 25.4177778,19.1831389 C25.5528889,19.1831389 25.688,19.1314167 25.7909167,19.0285 C25.9972778,18.8221389 25.9972778,18.4885833 25.7909167,18.2822222 L24.5490556,17.0393056 L24.5490556,17.0393056 Z"></path>
                        <path d="M22.9314167,22.04 C21.6114444,22.1049167 20.3178611,21.7576389 19.2274722,21.0493611 C18.8590833,20.8123889 18.5112778,20.5310833 18.1925,20.2123056 C17.3079444,19.3330278 16.71525,18.2299722 16.4803889,17.0261111 C16.3875,16.5268333 16.3563611,16.0143611 16.3869722,15.5034722 C16.4001667,15.2844444 16.2766667,15.0801944 16.0771667,14.9899444 C15.8755556,14.90075 15.64175,14.9429722 15.4871111,15.0981389 L14.3814167,16.2059444 C14.3793056,16.2080556 14.3756111,16.2091111 14.3729722,16.21175 L14.2922222,16.2956667 L11.5873611,19.0052778 C11.3968333,19.19475 11.2912778,19.4517778 11.29075,19.72675 C11.29075,19.9990833 11.3984167,20.2619167 11.5868333,20.4503333 L17.9771667,26.8401389 C18.1676944,27.0306667 18.4247222,27.1362222 18.6991667,27.1362222 C18.9741389,27.1362222 19.2311667,27.0311944 19.4211667,26.8411944 L23.3283056,22.9403889 C23.4829444,22.7868056 23.52675,22.553 23.4386111,22.3540278 C23.3515278,22.1545278 23.1615278,22.0315556 22.9314167,22.04 L22.9314167,22.04 Z M18.70075,26.0701111 L14.7170833,22.0859167 L12.3336389,19.7510278 L14.9044444,17.1738889 C14.91025,17.1680833 14.9186944,17.1665 14.9245,17.1606944 L15.1224167,16.9553889 L15.3667778,16.7105 C15.3863056,16.8820278 15.4121667,17.0530278 15.4438333,17.2235 C15.7203889,18.6400556 16.4138889,19.9325833 17.4478056,20.9601667 C17.8183056,21.3290833 18.2252222,21.6578889 18.6543056,21.9355 C19.5805556,22.5366389 20.6287222,22.9145278 21.7270278,23.0485833 L18.70075,26.0701111 L18.70075,26.0701111 Z"></path>
                    </g>
                </g>
            </g>
        </g>
    </g>
</svg>