<?xml version="1.0" encoding="UTF-8" standalone="no"?>
<svg width="80px" height="82px" viewBox="0 0 80 82" version="1.1" xmlns="http://www.w3.org/2000/svg" xmlns:xlink="http://www.w3.org/1999/xlink">
    <!-- Generator: Sketch 3.8.2 (29753) - http://www.bohemiancoding.com/sketch -->
    <title>noun_396421_cc</title>
    <desc>Created with Sketch.</desc>
    <defs></defs>
    <g id="Page-1" stroke="none" stroke-width="1" fill="none" fill-rule="evenodd">
        <g id="noun_396421_cc" fill="#000000">
            <g id="Group">
                <path d="M42.4,73.6 C33.9,79.8 22.3,80 13.5,73.6 C13.2,73.4 12.9,73.3 12.6,73.3 C12.4,73.3 12.2,73.3 12,73.4 L5.2,76.4 L8.2,69.6 C8.4,69.1 8.4,68.5 8,68.1 C2,59.9 1.8,49 7.1,40.7 C6.9,39.2 6.8,37.6 6.7,36.1 C-1.2,45.5 -1.9,59 5.1,69.2 L0.9,78.7 C0.7,79.3 0.8,79.9 1.2,80.4 C1.6,80.9 2.3,81 2.9,80.7 L12.4,76.5 C17.1,79.7 22.5,81.3 27.9,81.3 C34.8,81.3 41.6,78.7 46.9,73.6 C46.3,73.6 45.7,73.7 45.1,73.7 C44.2,73.7 43.3,73.7 42.4,73.6 L42.4,73.6 Z" id="Shape"></path>
                <path d="M73.6,54.7 C83.1,41 81.5,22.6 69.6,10.7 C56.1,-2.8 34.3,-2.8 20.8,10.7 C14.9,16.6 11.6,24.2 10.9,32 C10.8,33.4 10.7,34.7 10.8,36.1 C11,44.6 14.4,53 20.9,59.5 C27.6,66.2 36.4,69.7 45.3,69.7 C45.8,69.7 46.3,69.7 46.8,69.6 C48.2,69.5 49.5,69.4 50.9,69.2 C55.8,68.4 60.6,66.5 64.9,63.5 L77,69 C77.6,69.2 78.2,69.1 78.7,68.7 C79.2,68.3 79.3,67.6 79,67 L73.6,54.7 L73.6,54.7 Z M65.2,60.5 C64.7,60.3 64.1,60.3 63.7,60.7 C60.3,63.2 56.6,64.9 52.7,65.8 C51.4,66.1 50.2,66.3 48.9,66.5 C39.6,67.6 30,64.5 22.9,57.5 C16.4,51 13.3,42.3 13.7,33.7 C13.8,32.4 13.9,31.1 14.1,29.9 C15.2,23.7 18.1,17.8 22.8,13 C35.1,0.7 55.1,0.7 67.3,13 C78.3,24 79.7,41.2 70.5,53.8 C70.2,54.2 70.1,54.8 70.3,55.3 L74.5,64.8 L65.2,60.5 L65.2,60.5 Z" id="Shape"></path>
            </g>
        </g>
    </g>
</svg>