<?xml version="1.0" encoding="UTF-8" standalone="no"?>
<svg
   xmlns:dc="http://purl.org/dc/elements/1.1/"
   xmlns:cc="http://creativecommons.org/ns#"
   xmlns:rdf="http://www.w3.org/1999/02/22-rdf-syntax-ns#"
   xmlns:svg="http://www.w3.org/2000/svg"
   xmlns="http://www.w3.org/2000/svg"
   xmlns:sodipodi="http://sodipodi.sourceforge.net/DTD/sodipodi-0.dtd"
   xmlns:inkscape="http://www.inkscape.org/namespaces/inkscape"
   version="1.1"
   x="0px"
   y="0px"
   viewBox="0 0 59 58"
   enable-background="new 0 0 100 100"
   xml:space="preserve"
   id="svg4223"
   inkscape:version="0.91 r13725"
   sodipodi:docname="coin-lb.svg"
   width="59"
   height="58"><metadata
     id="metadata4243"><rdf:RDF><cc:Work
         rdf:about=""><dc:format>image/svg+xml</dc:format><dc:type
           rdf:resource="http://purl.org/dc/dcmitype/StillImage" /><dc:title></dc:title></cc:Work></rdf:RDF></metadata><defs
     id="defs4241" /><sodipodi:namedview
     pagecolor="#ffffff"
     bordercolor="#666666"
     borderopacity="1"
     objecttolerance="10"
     gridtolerance="10"
     guidetolerance="10"
     inkscape:pageopacity="0"
     inkscape:pageshadow="2"
     inkscape:window-width="1002"
     inkscape:window-height="663"
     id="namedview4239"
     showgrid="false"
     inkscape:zoom="0.9178246"
     inkscape:cx="135.19706"
     inkscape:cy="180.03456"
     inkscape:window-x="0"
     inkscape:window-y="0"
     inkscape:window-maximized="0"
     inkscape:current-layer="svg4223" /><g
     id="g4225"
     transform="translate(-20.481607,-20.986542)"
     style="fill:#4d9de0;fill-opacity:1;stroke:#4d9de0;stroke-opacity:1"><g
       id="g4227"
       style="fill:#4d9de0;fill-opacity:1;stroke:#4d9de0;stroke-opacity:1"><path
         d="m 63.5,78.9 c -8.7,0 -15.8,-7.1 -15.8,-15.8 0,-2 0.4,-3.9 1.1,-5.8 l 1.9,0.7 c -0.6,1.6 -0.9,3.3 -0.9,5 0,7.6 6.2,13.8 13.8,13.8 7.6,0 13.8,-6.2 13.8,-13.8 0,-7.6 -6.2,-13.8 -13.8,-13.8 -0.3,0 -1.9,0.4 -3.2,0.7 L 59.8,48 c 1.4,-0.4 3.2,-0.8 3.7,-0.8 8.7,0 15.8,7.1 15.8,15.8 0.1,8.8 -7,15.9 -15.8,15.9 z"
         id="path4229"
         inkscape:connector-curvature="0"
         style="fill:#4d9de0;fill-opacity:1;stroke:#4d9de0;stroke-opacity:1" /></g><g
       id="g4231"
       style="fill:#4d9de0;fill-opacity:1;stroke:#4d9de0;stroke-opacity:1"><path
         d="m 62.8,64.3 c -2,0 -3.6,-0.4 -3.8,-0.5 L 58.8,63.7 39.7,53.2 24.2,49.6 c -1.2,-0.3 -2.3,-1 -2.9,-2.1 -0.6,-1.1 -0.8,-2.4 -0.5,-3.6 l 3.4,-14.1 c 0.5,-1.7 2,-3 3.7,-3.2 l 22.7,-5.4 c 3.4,-0.5 6.7,0.5 9.3,2.6 l 12.2,8.6 c 2.1,1.7 3.5,2.9 3,6.1 L 72.8,50.2 70.8,49.8 73,38.1 C 73.3,36 72.7,35.5 70.7,33.8 L 70.5,33.6 58.6,25.2 c -2.2,-1.8 -5,-2.6 -7.7,-2.2 l -22.7,5.4 c -1.1,0.2 -1.9,0.8 -2.1,1.8 l -3.4,14.1 c -0.2,0.7 -0.1,1.4 0.2,2 0.3,0.6 0.9,1 1.6,1.2 l 15.9,3.7 19.1,10.5 c 1.6,0.4 5.8,0.9 7.2,-1.1 2.1,-2.9 0.4,-5.3 0.1,-5.7 L 49.5,41.4 49.7,40.7 c 0.6,-1.8 1.9,-3.1 3.7,-3.6 0.1,-0.1 0.6,-0.5 0.9,-0.8 0.9,-0.9 1.6,-1.5 2.4,-1.3 0.4,0.1 0.7,0.3 0.8,0.7 1.1,2.6 4.2,3.4 6,3.9 1.1,0.3 1.9,0.5 2,1.4 l 0,0.1 -1,8.1 -2,-0.2 0.9,-7.3 c -0.1,0 -0.3,-0.1 -0.5,-0.1 -1.9,-0.5 -5.2,-1.4 -7,-4.2 -0.2,0.2 -0.4,0.3 -0.5,0.5 -0.7,0.7 -1.2,1.1 -1.7,1.3 -1.1,0.3 -1.7,1.1 -2.1,1.7 l 16.6,13 c 1.2,1.3 2.7,4.7 0.1,8.3 -1.1,1.7 -3.5,2.1 -5.5,2.1 z"
         id="path4233"
         inkscape:connector-curvature="0"
         style="fill:#4d9de0;fill-opacity:1;stroke:#4d9de0;stroke-opacity:1" /></g></g></svg>