<?xml version="1.0" encoding="UTF-8" standalone="no"?>
<svg
   xmlns:dc="http://purl.org/dc/elements/1.1/"
   xmlns:cc="http://creativecommons.org/ns#"
   xmlns:rdf="http://www.w3.org/1999/02/22-rdf-syntax-ns#"
   xmlns:svg="http://www.w3.org/2000/svg"
   xmlns="http://www.w3.org/2000/svg"
   xmlns:sodipodi="http://sodipodi.sourceforge.net/DTD/sodipodi-0.dtd"
   xmlns:inkscape="http://www.inkscape.org/namespaces/inkscape"
   version="1.1"
   x="0px"
   y="0px"
   viewBox="0 0 100 125"
   enable-background="new 0 0 100 100"
   xml:space="preserve"
   id="svg2"
   inkscape:version="0.91 r13725"
   sodipodi:docname="noun_70961_cc.svg"><metadata
     id="metadata16"><rdf:RDF><cc:Work
         rdf:about=""><dc:format>image/svg+xml</dc:format><dc:type
           rdf:resource="http://purl.org/dc/dcmitype/StillImage" /></cc:Work></rdf:RDF></metadata><defs
     id="defs14" /><sodipodi:namedview
     pagecolor="#ffffff"
     bordercolor="#666666"
     borderopacity="1"
     objecttolerance="10"
     gridtolerance="10"
     guidetolerance="10"
     inkscape:pageopacity="0"
     inkscape:pageshadow="2"
     inkscape:window-width="640"
     inkscape:window-height="480"
     id="namedview12"
     showgrid="false"
     inkscape:zoom="1.888"
     inkscape:cx="50"
     inkscape:cy="11.342335"
     inkscape:window-x="279"
     inkscape:window-y="213"
     inkscape:window-maximized="0"
     inkscape:current-layer="svg2" /><path
     fill="#000000"
     d="M52,48.401V34.662c4.253,0.641,7.013,3.192,7.073,3.248c0.795,0.761,2.057,0.737,2.822-0.057  c0.767-0.795,0.744-2.061-0.051-2.828c-0.173-0.167-3.934-3.713-9.843-4.388V27c0-1.104-0.896-2-2-2s-2,0.896-2,2v3.641  c-6.843,0.749-11.623,5.173-11.623,11.086c0,6.565,7.555,8.698,11.623,9.723v15.199c-3.089-0.668-7.436-2.462-9.086-4.112  c-0.781-0.78-2.047-0.781-2.829,0c-0.781,0.781-0.781,2.047,0,2.829c2.396,2.395,7.992,4.666,11.914,5.346V74c0,1.104,0.896,2,2,2  s2-0.896,2-2v-3.199c5.127-0.605,11.625-3.606,11.625-10.359C63.625,55.028,59.51,50.788,52,48.401z M40.377,41.727  c0-4.223,3.653-6.479,7.623-7.056v12.646C44.761,46.448,40.377,44.917,40.377,41.727z M52,66.721v-14.09  c3.553,1.32,7.625,3.723,7.625,7.811C59.625,64.884,54.788,66.282,52,66.721z"
     id="path4" /><path
     fill="#000000"
     d="M50,8C27.234,8,8,27.234,8,50s19.234,42,42,42s42-19.234,42-42S72.766,8,50,8z M50,88  c-20.598,0-38-17.402-38-38s17.402-38,38-38s38,17.402,38,38S70.598,88,50,88z"
     id="path6" /></svg>