<?xml version="1.0" encoding="UTF-8" standalone="no"?>
<svg
   xmlns:dc="http://purl.org/dc/elements/1.1/"
   xmlns:cc="http://creativecommons.org/ns#"
   xmlns:rdf="http://www.w3.org/1999/02/22-rdf-syntax-ns#"
   xmlns:svg="http://www.w3.org/2000/svg"
   xmlns="http://www.w3.org/2000/svg"
   xmlns:sodipodi="http://sodipodi.sourceforge.net/DTD/sodipodi-0.dtd"
   xmlns:inkscape="http://www.inkscape.org/namespaces/inkscape"
   version="1.1"
   x="0px"
   y="0px"
   viewBox="0 0 90 112.5"
   enable-background="new 0 0 90 90"
   xml:space="preserve"
   id="svg2"
   inkscape:version="0.91 r13725"
   sodipodi:docname="noun_140463_cc.svg"><metadata
     id="metadata16"><rdf:RDF><cc:Work
         rdf:about=""><dc:format>image/svg+xml</dc:format><dc:type
           rdf:resource="http://purl.org/dc/dcmitype/StillImage" /></cc:Work></rdf:RDF></metadata><defs
     id="defs14" /><sodipodi:namedview
     pagecolor="#ffffff"
     bordercolor="#666666"
     borderopacity="1"
     objecttolerance="10"
     gridtolerance="10"
     guidetolerance="10"
     inkscape:pageopacity="0"
     inkscape:pageshadow="2"
     inkscape:window-width="640"
     inkscape:window-height="480"
     id="namedview12"
     showgrid="false"
     inkscape:zoom="2.0977778"
     inkscape:cx="45"
     inkscape:cy="56.25"
     inkscape:window-x="0"
     inkscape:window-y="23"
     inkscape:window-maximized="0"
     inkscape:current-layer="svg2" /><g
     id="g4"><path
       d="M46.6,16.5c-17.6,0-32,14.3-32,32c0,11.1,5.6,21.2,15,27.1c0.9,0.6,2.2,0.3,2.8-0.6c0.6-0.9,0.3-2.2-0.6-2.8   c-3.4-2.1-6.2-4.9-8.3-8.1l2.1-1.2c1-0.6,1.3-1.8,0.7-2.7c-0.6-1-1.8-1.3-2.7-0.7l-2.1,1.2c-1.5-3.2-2.5-6.6-2.7-10.2h2.2   c1.1,0,2-0.9,2-2c0-1.1-0.9-2-2-2h-2.2c0.3-3.7,1.2-7.1,2.8-10.3l2,1.2c0.3,0.2,0.7,0.3,1,0.3c0.7,0,1.4-0.4,1.7-1   c0.6-1,0.2-2.2-0.7-2.7l-2-1.1c2-2.9,4.6-5.5,7.5-7.4l1.1,2c0.4,0.6,1,1,1.7,1c0.3,0,0.7-0.1,1-0.3c1-0.6,1.3-1.8,0.7-2.7l-1.1-1.9   c3.1-1.5,6.5-2.4,10.1-2.7v2.5c0,1.1,0.9,2,2,2c1.1,0,2-0.9,2-2v-2.5c3.7,0.3,7.1,1.2,10.3,2.7l-1.1,1.9c-0.6,1-0.2,2.2,0.7,2.7   c0.3,0.2,0.7,0.3,1,0.3c0.7,0,1.4-0.4,1.7-1l1.1-1.9c2.9,2,5.4,4.5,7.4,7.4l-1.9,1.1c-1,0.6-1.3,1.8-0.7,2.7c0.4,0.6,1,1,1.7,1   c0.3,0,0.7-0.1,1-0.3l1.9-1.1c1.5,3.1,2.5,6.6,2.8,10.3h-2.2c-1.1,0-2,0.9-2,2s0.9,2,2,2h2.2c-0.3,3.6-1.2,7-2.7,10.1l-2-1.1   c-1-0.6-2.2-0.2-2.7,0.7c-0.6,1-0.2,2.2,0.7,2.7l2,1.1c-2.2,3.3-5.1,6.1-8.6,8.2c-0.9,0.6-1.2,1.8-0.7,2.8c0.4,0.6,1,1,1.7,1   c0.4,0,0.7-0.1,1-0.3c9.5-5.9,15.2-16,15.2-27.2C78.5,30.8,64.2,16.5,46.6,16.5z M61.3,42.2c1-0.6,1.3-1.8,0.7-2.7   c-0.6-1-1.8-1.3-2.7-0.7L48.5,45c-0.6-0.3-1.2-0.5-2-0.5c-2.2,0-4,1.8-4,4c0,2.2,1.8,4,4,4s4-1.8,4-4c0,0,0,0,0,0L61.3,42.2z"
       id="path6" /></g></svg>