<?xml version="1.0" encoding="UTF-8" standalone="no"?>
<svg
   xmlns:dc="http://purl.org/dc/elements/1.1/"
   xmlns:cc="http://creativecommons.org/ns#"
   xmlns:rdf="http://www.w3.org/1999/02/22-rdf-syntax-ns#"
   xmlns:svg="http://www.w3.org/2000/svg"
   xmlns="http://www.w3.org/2000/svg"
   xmlns:sodipodi="http://sodipodi.sourceforge.net/DTD/sodipodi-0.dtd"
   xmlns:inkscape="http://www.inkscape.org/namespaces/inkscape"
   version="1.1"
   x="0px"
   y="0px"
   viewBox="0 0 60 55"
   enable-background="new 0 0 60 44"
   xml:space="preserve"
   id="svg2"
   inkscape:version="0.91 r13725"
   sodipodi:docname="noun_325256_cc.svg"><metadata
     id="metadata36"><rdf:RDF><cc:Work
         rdf:about=""><dc:format>image/svg+xml</dc:format><dc:type
           rdf:resource="http://purl.org/dc/dcmitype/StillImage" /></cc:Work></rdf:RDF></metadata><defs
     id="defs34" /><sodipodi:namedview
     pagecolor="#ffffff"
     bordercolor="#666666"
     borderopacity="1"
     objecttolerance="10"
     gridtolerance="10"
     guidetolerance="10"
     inkscape:pageopacity="0"
     inkscape:pageshadow="2"
     inkscape:window-width="640"
     inkscape:window-height="480"
     id="namedview32"
     showgrid="false"
     inkscape:zoom="4.2909091"
     inkscape:cx="20.677966"
     inkscape:cy="33.86612"
     inkscape:window-x="0"
     inkscape:window-y="23"
     inkscape:window-maximized="0"
     inkscape:current-layer="svg2" /><g
     id="g4"><path
       d="M55.78,0H4.22C1.89,0,0,1.89,0,4.22v35.57C0,42.11,1.89,44,4.22,44h51.57c2.33,0,4.22-1.89,4.22-4.22V4.22   C60,1.89,58.11,0,55.78,0z M58,39.78c0,1.22-0.99,2.22-2.22,2.22H4.22C2.99,42,2,41.01,2,39.78V4.22C2,2.99,2.99,2,4.22,2h51.57   C57.01,2,58,2.99,58,4.22V39.78z"
       id="path6" /><path
       d="M22.64,28.25L19,26.39V26c1.63-0.89,2.77-2.35,3.41-4.36C23.38,21.12,24,20.12,24,19v-1c0-0.93-0.43-1.79-1.15-2.35   c-0.62-3.78-3.26-5.7-7.85-5.7c-0.22,0-0.43,0.01-0.64,0.02c-1.2,0.1-2.36-0.16-3.22-0.74c-0.41-0.28-0.72-0.54-0.92-0.79   C9.78,7.88,8.86,7.85,8.38,8.38c-0.23,0.25-0.33,0.6-0.29,0.94c0.04,0.37,0.11,0.81,0.2,1.29c0.19,0.97,0.19,0.97-0.08,1.56   c-0.1,0.22-0.23,0.49-0.38,0.85c-0.33,0.81-0.57,1.7-0.7,2.65C6.42,16.23,6,17.08,6,18v1c0,1.12,0.62,2.12,1.59,2.64   C8.23,23.65,9.37,25.11,11,26v0.38l-3.77,1.86C5.86,28.99,5,30.42,5,31.99v1.33C5,34.12,5,36,15,36s10-1.88,10-2.68v-1.25   C25,30.44,24.09,28.97,22.64,28.25z M23,33.09C22.38,33.47,19.84,34,15,34s-7.38-0.53-8-0.91v-1.1c0-0.83,0.46-1.6,1.15-1.98   l3.86-1.9c0.6-0.29,0.99-0.92,0.99-1.59v-1.8l-0.6-0.26c-1.52-0.65-2.5-1.9-3.01-3.81l-0.14-0.53l-0.53-0.16   C8.29,19.82,8,19.43,8,19v-1c0-0.36,0.21-0.7,0.54-0.88l0.47-0.25l0.05-0.53c0.1-0.94,0.31-1.8,0.62-2.57   c0.13-0.33,0.25-0.57,0.34-0.77c0.34-0.73,0.46-1.1,0.38-1.88c1.17,0.67,2.62,0.96,4.12,0.84c0.16-0.01,0.31-0.02,0.48-0.02   c3.74,0,5.57,1.36,5.93,4.4l0.06,0.52l0.46,0.25C21.79,17.3,22,17.64,22,18v1c0,0.43-0.29,0.82-0.71,0.95l-0.53,0.16l-0.14,0.53   c-0.51,1.91-1.5,3.16-3.01,3.81L17,24.72v1.81c0,0.67,0.37,1.27,0.96,1.58l3.78,1.93C22.52,30.42,23,31.2,23,32.07V33.09z"
       id="path8" /><path
       d="M30,15h10c0.55,0,1-0.45,1-1s-0.45-1-1-1H30c-0.55,0-1,0.45-1,1S29.45,15,30,15z"
       id="path10" /><path
       d="M44,15h1c0.55,0,1-0.45,1-1s-0.45-1-1-1h-1c-0.55,0-1,0.45-1,1S43.45,15,44,15z"
       id="path12" /><path
       d="M31,30h-1c-0.55,0-1,0.45-1,1s0.45,1,1,1h1c0.55,0,1-0.45,1-1S31.55,30,31,30z"
       id="path14" /><path
       d="M37,30h-2c-0.55,0-1,0.45-1,1s0.45,1,1,1h2c0.55,0,1-0.45,1-1S37.55,30,37,30z"
       id="path16" /><path
       d="M42,30h-1c-0.55,0-1,0.45-1,1s0.45,1,1,1h1c0.55,0,1-0.45,1-1S42.55,30,42,30z"
       id="path18" /><path
       d="M48,30h-2c-0.55,0-1,0.45-1,1s0.45,1,1,1h2c0.55,0,1-0.45,1-1S48.55,30,48,30z"
       id="path20" /><path
       d="M51.29,30.29C51.11,30.48,51,30.74,51,31s0.11,0.52,0.29,0.71C51.48,31.89,51.74,32,52,32s0.52-0.11,0.71-0.29   C52.89,31.52,53,31.26,53,31s-0.11-0.52-0.29-0.71C52.33,29.92,51.66,29.92,51.29,30.29z"
       id="path22" /><path
       d="M52,19H30c-0.55,0-1,0.45-1,1s0.45,1,1,1h22c0.55,0,1-0.45,1-1S52.55,19,52,19z"
       id="path24" /><path
       d="M52,25H30c-0.55,0-1,0.45-1,1s0.45,1,1,1h22c0.55,0,1-0.45,1-1S52.55,25,52,25z"
       id="path26" /></g></svg>