<?xml version="1.0" encoding="UTF-8" standalone="no"?>
<svg
   xmlns:dc="http://purl.org/dc/elements/1.1/"
   xmlns:cc="http://creativecommons.org/ns#"
   xmlns:rdf="http://www.w3.org/1999/02/22-rdf-syntax-ns#"
   xmlns:svg="http://www.w3.org/2000/svg"
   xmlns="http://www.w3.org/2000/svg"
   xmlns:sodipodi="http://sodipodi.sourceforge.net/DTD/sodipodi-0.dtd"
   xmlns:inkscape="http://www.inkscape.org/namespaces/inkscape"
   version="1.1"
   x="0px"
   y="0px"
   viewBox="0 0 54 54"
   enable-background="new 0 0 54 54"
   xml:space="preserve"
   id="svg4188"
   inkscape:version="0.91 r13725"
   sodipodi:docname="inner.svg"
   width="54"
   height="54"><metadata
     id="metadata4200"><rdf:RDF><cc:Work
         rdf:about=""><dc:format>image/svg+xml</dc:format><dc:type
           rdf:resource="http://purl.org/dc/dcmitype/StillImage" /><dc:title></dc:title></cc:Work></rdf:RDF></metadata><defs
     id="defs4198" /><sodipodi:namedview
     pagecolor="#ffffff"
     bordercolor="#666666"
     borderopacity="1"
     objecttolerance="10"
     gridtolerance="10"
     guidetolerance="10"
     inkscape:pageopacity="0"
     inkscape:pageshadow="2"
     inkscape:window-width="1448"
     inkscape:window-height="863"
     id="namedview4196"
     showgrid="false"
     inkscape:zoom="9.6148148"
     inkscape:cx="31.165149"
     inkscape:cy="35.626438"
     inkscape:window-x="0"
     inkscape:window-y="0"
     inkscape:window-maximized="0"
     inkscape:current-layer="svg4188" /><path
     d="M 46.77,8.64 49.7,5.71 c 0.39,-0.39 0.39,-1.02 0,-1.41 -0.39,-0.39 -1.02,-0.39 -1.41,0 L 45.36,7.23 C 40.54,2.75 34.08,0 27,0 12.11,0 0,12.11 0,27 0,34.08 2.75,40.54 7.23,45.36 L 4.3,48.29 C 3.91,48.68 3.91,49.31 4.3,49.7 4.49,49.9 4.74,50 5,50 5.26,50 5.51,49.9 5.71,49.71 L 8.64,46.78 C 13.46,51.25 19.92,54 27,54 41.89,54 54,41.89 54,27 54,19.92 51.25,13.46 46.77,8.64 Z M 27,52 C 20.47,52 14.51,49.48 10.05,45.36 L 21,34.41 l 0,11.73 2,0 0,-15.14 -15.14,0 0,2 11.73,0 L 8.64,43.95 C 4.52,39.49 2,33.53 2,27 2,13.21 13.21,2 27,2 33.53,2 39.49,4.52 43.95,8.64 L 33,19.59 33,7.86 l -2,0 0,15.14 15.14,0 0,-2 -11.73,0 10.95,-10.95 C 49.48,14.51 52,20.47 52,27 52,40.79 40.79,52 27,52 Z"
     id="path4190"
     inkscape:connector-curvature="0" /></svg>