<?xml version="1.0" encoding="UTF-8" standalone="no"?>
<svg
   xmlns:dc="http://purl.org/dc/elements/1.1/"
   xmlns:cc="http://creativecommons.org/ns#"
   xmlns:rdf="http://www.w3.org/1999/02/22-rdf-syntax-ns#"
   xmlns:svg="http://www.w3.org/2000/svg"
   xmlns="http://www.w3.org/2000/svg"
   xmlns:sodipodi="http://sodipodi.sourceforge.net/DTD/sodipodi-0.dtd"
   xmlns:inkscape="http://www.inkscape.org/namespaces/inkscape"
   width="80"
   height="80"
   viewBox="0 0 80 80"
   version="1.1"
   id="svg4238"
   inkscape:version="0.91 r13725"
   sodipodi:docname="invoice-lb.svg">
  <metadata
     id="metadata4259">
    <rdf:RDF>
      <cc:Work
         rdf:about="">
        <dc:format>image/svg+xml</dc:format>
        <dc:type
           rdf:resource="http://purl.org/dc/dcmitype/StillImage" />
        <dc:title>noun_32247_cc</dc:title>
      </cc:Work>
    </rdf:RDF>
  </metadata>
  <sodipodi:namedview
     pagecolor="#ffffff"
     bordercolor="#666666"
     borderopacity="1"
     objecttolerance="10"
     gridtolerance="10"
     guidetolerance="10"
     inkscape:pageopacity="0"
     inkscape:pageshadow="2"
     inkscape:window-width="1414"
     inkscape:window-height="862"
     id="namedview4257"
     showgrid="false"
     inkscape:zoom="2.1633333"
     inkscape:cx="31"
     inkscape:cy="28.255008"
     inkscape:window-x="0"
     inkscape:window-y="0"
     inkscape:window-maximized="0"
     inkscape:current-layer="svg4238" />
  <!-- Generator: Sketch 3.6.1 (26313) - http://www.bohemiancoding.com/sketch -->
  <title
     id="title4240">noun_32247_cc</title>
  <desc
     id="desc4242">Created with Sketch.</desc>
  <defs
     id="defs4244" />
  <g
     id="Page-1"
     style="fill:none;fill-rule:evenodd;stroke:none;stroke-width:1"
     transform="translate(9,2.5)">
    <g
       id="noun_32247_cc">
      <g
         id="Group"
         transform="translate(12.786598,14.443038)">
        <g
           id="Group-2"
           transform="translate(0.664106,0)">
          <path
             d="m 22.42,15.556423 c 0,-2.530683 -1.587995,-4.00983 -4.733098,-5.204091 -2.655138,-1.0244581 -3.786479,-1.7640313 -3.786479,-3.2414853 0,-1.1384124 0.886661,-2.4460636 3.237766,-2.4460636 1.953804,0 3.205062,0.6261833 3.846438,0.9669172 l 0.76311,-1.8779856 C 20.974936,3.3317462 19.897498,2.9481384 18.423969,2.8161322 l 0,-2.8161322 -0.64501,0 -1.893844,0 -0.55053,0 0,2.9949611 c -2.483741,0.5675139 -4.059018,2.2570804 -4.059018,4.4566195 0,2.4731418 1.922916,3.7830494 5.037131,4.9192054 2.260259,0.853527 3.450953,1.81988 3.450953,3.38421 0,1.621871 -1.466261,2.786798 -3.635068,2.786798 -1.708518,0 -3.296514,-0.539308 -4.396361,-1.22134 L 11,19.225518 c 1.001128,0.665672 2.670885,1.141233 4.33398,1.224724 l 0,2.899059 0.337343,0 1.922915,0 0.82852,0 0,-3.148404 C 21.026416,19.500813 22.42,17.594621 22.42,15.556423 l 0,0 z"
             id="Shape"
             inkscape:connector-curvature="0"
             style="fill:#499ce3" />
          <path
             d="m 0,32 34.309305,0"
             id="Line"
             inkscape:connector-curvature="0"
             style="stroke:#499ce3;stroke-width:2;stroke-linecap:square" />
          <path
             d="m 0,40 34.309305,0"
             id="path4252"
             inkscape:connector-curvature="0"
             style="stroke:#499ce3;stroke-width:2;stroke-linecap:square" />
          <path
             d="m 0,48 34.309305,0"
             id="path4254"
             inkscape:connector-curvature="0"
             style="stroke:#499ce3;stroke-width:2;stroke-linecap:square" />
        </g>
      </g>
      <rect
         id="Rectangle-1"
         x="0"
         y="0"
         width="62"
         height="75"
         rx="2"
         style="stroke:#499ce3;stroke-width:4" />
    </g>
  </g>
</svg>
