<?xml version="1.0" encoding="UTF-8" standalone="no"?>
<svg width="62px" height="75px" viewBox="0 0 62 75" version="1.1" xmlns="http://www.w3.org/2000/svg" xmlns:xlink="http://www.w3.org/1999/xlink">
    <!-- Generator: Sketch 3.6.1 (26313) - http://www.bohemiancoding.com/sketch -->
    <title>noun_32247_cc</title>
    <desc>Created with Sketch.</desc>
    <defs></defs>
    <g id="Page-1" stroke="none" stroke-width="1" fill="none" fill-rule="evenodd">
        <g id="noun_32247_cc">
            <g id="Group" transform="translate(12.786598, 14.443038)">
                <g id="Group-2" transform="translate(0.664106, 0.000000)">
                    <path d="M22.4200001,15.5564227 C22.4200001,13.0257398 20.8320047,11.5465934 17.6869018,10.3523322 C15.0317639,9.32787387 13.9004232,8.58830068 13.9004232,7.1108467 C13.9004232,5.97243427 14.7870842,4.66478313 17.1381895,4.66478313 C19.0919931,4.66478313 20.343251,5.29096637 20.9846267,5.63170032 L21.7477366,3.75371471 C20.9749364,3.33174618 19.8974979,2.94813842 18.4239691,2.81613223 L18.4239691,0 L17.7789595,0 L15.8851146,0 L15.3345853,0 L15.3345853,2.99496113 C12.8508443,3.56247496 11.2755675,5.25204147 11.2755675,7.45158064 C11.2755675,9.9247224 13.1984833,11.2346301 16.3126984,12.370786 C18.5729572,13.2243132 19.7636509,14.1906663 19.7636509,15.7549962 C19.7636509,17.3768672 18.2973897,18.5417937 16.128583,18.5417937 C14.4200647,18.5417937 12.8320694,18.0024863 11.7322221,17.3204543 L11,19.2255181 C12.0011275,19.8911904 13.6708846,20.3667511 15.3339797,20.4502422 L15.3339797,23.3493014 L15.6713227,23.3493014 L17.5942385,23.3493014 L18.4227578,23.3493014 L18.4227578,20.2008972 C21.0264161,19.5008131 22.4200001,17.594621 22.4200001,15.5564227 L22.4200001,15.5564227 Z" id="Shape" fill="#000000"></path>
                    <path d="M0,32 L34.3093055,32" id="Line" stroke="#000000" stroke-width="2" stroke-linecap="square"></path>
                    <path d="M0,40 L34.3093055,40" id="Line" stroke="#000000" stroke-width="2" stroke-linecap="square"></path>
                    <path d="M0,48 L34.3093055,48" id="Line" stroke="#000000" stroke-width="2" stroke-linecap="square"></path>
                </g>
            </g>
            <rect id="Rectangle-1" stroke="#000000" stroke-width="4" x="0" y="0" width="62" height="75" rx="2"></rect>
        </g>
    </g>
</svg>