<?xml version="1.0" encoding="UTF-8" standalone="no"?>
<svg
   xmlns:sketch="http://www.bohemiancoding.com/sketch/ns"
   xmlns:dc="http://purl.org/dc/elements/1.1/"
   xmlns:cc="http://creativecommons.org/ns#"
   xmlns:rdf="http://www.w3.org/1999/02/22-rdf-syntax-ns#"
   xmlns:svg="http://www.w3.org/2000/svg"
   xmlns="http://www.w3.org/2000/svg"
   xmlns:sodipodi="http://sodipodi.sourceforge.net/DTD/sodipodi-0.dtd"
   xmlns:inkscape="http://www.inkscape.org/namespaces/inkscape"
   viewBox="0 0 81 81"
   version="1.1"
   x="0px"
   y="0px"
   id="svg4245"
   inkscape:version="0.91 r13725"
   sodipodi:docname="key.svg"
   width="81"
   height="81">
  <metadata
     id="metadata4265">
    <rdf:RDF>
      <cc:Work
         rdf:about="">
        <dc:format>image/svg+xml</dc:format>
        <dc:type
           rdf:resource="http://purl.org/dc/dcmitype/StillImage" />
        <dc:title>1 copy 10</dc:title>
      </cc:Work>
    </rdf:RDF>
  </metadata>
  <defs
     id="defs4263" />
  <sodipodi:namedview
     pagecolor="#ffffff"
     bordercolor="#666666"
     borderopacity="1"
     objecttolerance="10"
     gridtolerance="10"
     guidetolerance="10"
     inkscape:pageopacity="0"
     inkscape:pageshadow="2"
     inkscape:window-width="982"
     inkscape:window-height="645"
     id="namedview4261"
     showgrid="false"
     inkscape:zoom="1"
     inkscape:cx="-124"
     inkscape:cy="62.5"
     inkscape:window-x="425"
     inkscape:window-y="193"
     inkscape:window-maximized="0"
     inkscape:current-layer="svg4245" />
  <title
     id="title4247">1 copy 10</title>
  <desc
     id="desc4249">Created with Sketch.</desc>
  <g
     sketch:type="MSPage"
     id="g4251"
     style="fill:#000000;fill-rule:evenodd;stroke:#000000;stroke-width:1;fill-opacity:1;stroke-opacity:1"
     transform="translate(-9.6860924,-9.6913045)">
    <g
       sketch:type="MSArtboardGroup"
       id="g4253"
       style="fill:#000000;fill-opacity:1;stroke:#000000;stroke-opacity:1">
      <path
         d="m 88.507826,10 -13.335652,0 c -0.497391,0 -0.970435,0.198261 -1.325217,0.549565 L 34.953043,49.436522 C 28.118261,47.989565 20.96,50.093913 16.073043,54.994783 12.153044,58.914783 10,64.118261 10,69.648696 c 0,5.544348 2.153044,10.747826 6.073043,14.660869 3.906087,3.92 9.116522,6.073044 14.653913,6.073044 5.537392,0 10.74087,-2.153044 14.66087,-6.073044 4.904348,-4.897391 6.984348,-12.045217 5.551304,-18.88 l 13.613913,-13.613913 8.111305,0 c 0.956522,0 1.753043,-0.713043 1.853913,-1.666087 l 0.956522,-8.626087 7.471304,0 c 0.949565,0 1.753043,-0.713043 1.853913,-1.666087 l 1.046957,-9.342608 3.982608,-3.986087 c 0.347826,-0.354783 0.542609,-0.82087 0.542609,-1.325218 l 0,-13.328695 C 90.375652,10.841739 89.54087,10 88.507826,10 l 0,0 z m -1.874783,14.431304 -3.892173,3.906087 c -0.299131,0.299131 -0.490435,0.692174 -0.535653,1.12 L 81.28,37.78087 l -7.213913,0 c -0.497391,0 -1.262609,0.490434 -1.617391,0.841739 -0.299131,0.29913 -0.490435,0.692174 -0.535653,1.113043 l -0.91826,8.333913 -7.213913,0 c -0.497392,0 -0.970435,0.198261 -1.325218,0.549565 L 47.558261,63.516522 c -0.469565,0.469565 -0.657391,1.154782 -0.483478,1.794782 1.568695,5.958261 -0.0487,12.066087 -4.333913,16.344348 -6.427827,6.42087 -17.606957,6.42087 -24.02087,0 -3.206956,-3.206956 -4.973913,-7.464348 -4.973913,-12.010435 0,-4.532173 1.766957,-8.796521 4.973913,-12.003478 3.165217,-3.165217 7.391304,-4.911304 11.902609,-4.911304 1.502608,0 2.987826,0.198261 4.441739,0.577391 0.61913,0.170435 1.325217,-0.01391 1.801739,-0.483478 l 39.081739,-39.081739 10.685217,0 0,10.688695 0,0 z M 29.405217,77.22087 c -1.666087,1.669565 -4.577391,1.669565 -6.250434,0 -1.725218,-1.725218 -1.725218,-4.525218 0,-6.250435 C 23.989565,70.142609 25.106087,69.68 26.278261,69.68 c 1.172174,0 2.295652,0.462609 3.123478,1.290435 1.721739,1.725217 1.721739,4.525217 0.0035,6.250435 l 0,0 z m -8.893913,-8.890435 c -3.17913,3.17913 -3.17913,8.361739 0,11.540869 1.533913,1.533913 3.586087,2.379131 5.766957,2.379131 2.180869,0 4.233043,-0.841739 5.773913,-2.379131 3.172174,-3.17913 3.172174,-8.361739 -0.007,-11.547826 -3.074782,-3.071304 -8.441739,-3.085217 -11.533913,0.007 l 0,0 z"
         sketch:type="MSShapeGroup"
         id="path4255"
         inkscape:connector-curvature="0"
         style="fill:#000000;fill-opacity:1;stroke:#000000;stroke-opacity:1" />
    </g>
  </g>
</svg>
