<?xml version="1.0" encoding="UTF-8" standalone="no"?>
<svg width="26px" height="26px" viewBox="0 0 26 26" version="1.1" xmlns="http://www.w3.org/2000/svg" xmlns:xlink="http://www.w3.org/1999/xlink">
    <!-- Generator: Sketch 3.7.2 (28276) - http://www.bohemiancoding.com/sketch -->
    <title>Group</title>
    <desc>Created with Sketch.</desc>
    <defs></defs>
    <g id="Payment-methods" stroke="none" stroke-width="1" fill="none" fill-rule="evenodd">
        <g id="Desktop" transform="translate(-345.000000, -274.000000)" fill="#85C1EA">
            <g id="Group" transform="translate(345.000000, 274.000000)">
                <path d="M13,0 L12.9875,0 C12.9875,0 12.9875,0 12.98125,0 L12.96875,0 C5.8,0.01875 0,5.83125 0,13 C0,20.16875 5.8,25.98125 12.96875,26 L12.98125,26 L12.9875,26 L13,26 C20.18125,26 26,20.18125 26,13 C26,5.81875 20.18125,0 13,0 L13,0 Z M13.51875,7.78125 C14.9,7.74375 16.2375,7.5625 17.53125,7.25 C17.91875,8.78125 18.1625,10.55 18.2,12.4875 L13.51875,12.4875 L13.51875,7.78125 L13.51875,7.78125 Z M13.51875,6.7375 L13.51875,1.125 C14.91875,1.5125 16.34375,3.38125 17.24375,6.25 C16.04375,6.5375 14.8,6.7 13.51875,6.7375 L13.51875,6.7375 Z M12.48125,1.1125 L12.48125,6.74375 C11.1875,6.70625 9.93125,6.5375 8.725,6.24375 C9.6375,3.35625 11.06875,1.475 12.48125,1.1125 L12.48125,1.1125 Z M12.48125,7.78125 L12.48125,12.48125 L7.76875,12.48125 C7.80625,10.54375 8.05,8.775 8.4375,7.24375 C9.7375,7.55625 11.09375,7.74375 12.48125,7.78125 L12.48125,7.78125 Z M6.71875,12.48125 L1.05625,12.48125 C1.16875,9.80625 2.16875,7.35625 3.7625,5.41875 C4.91875,6.05625 6.15,6.58125 7.4375,6.96875 C7.0125,8.625 6.7625,10.49375 6.71875,12.48125 L6.71875,12.48125 Z M6.71875,13.51875 C6.75625,15.5 7.00625,17.375 7.43125,19.03125 C6.14375,19.425 4.91875,19.94375 3.75625,20.58125 C2.1625,18.64375 1.16875,16.19375 1.05,13.51875 L6.71875,13.51875 L6.71875,13.51875 Z M7.76875,13.51875 L12.48125,13.51875 L12.48125,18.2125 C11.09375,18.25 9.7375,18.4375 8.4375,18.75625 C8.05,17.225 7.80625,15.45625 7.76875,13.51875 L7.76875,13.51875 Z M12.48125,19.25625 L12.48125,24.89375 C11.06875,24.525 9.6375,22.65 8.725,19.7625 C9.93125,19.4625 11.1875,19.29375 12.48125,19.25625 L12.48125,19.25625 Z M13.51875,24.875 L13.51875,19.25 C14.8,19.2875 16.04375,19.45625 17.25,19.74375 C16.34375,22.61875 14.925,24.4875 13.51875,24.875 L13.51875,24.875 Z M13.51875,18.2125 L13.51875,13.51875 L18.2,13.51875 C18.1625,15.45 17.91875,17.21875 17.53125,18.75 C16.2375,18.4375 14.9,18.25 13.51875,18.2125 L13.51875,18.2125 Z M19.24375,13.51875 L24.94375,13.51875 C24.83125,16.19375 23.83125,18.6375 22.2375,20.58125 C21.06875,19.9375 19.83125,19.4125 18.53125,19.01875 C18.95625,17.3625 19.20625,15.5 19.24375,13.51875 L19.24375,13.51875 Z M19.24375,12.48125 C19.20625,10.5 18.95625,8.63125 18.5375,6.975 C19.8375,6.58125 21.075,6.05625 22.2375,5.41875 C23.83125,7.35625 24.83125,9.80625 24.94375,12.4875 L19.24375,12.4875 L19.24375,12.48125 Z M21.525,4.61875 C20.4875,5.16875 19.4,5.625 18.25625,5.96875 C17.65,4.0125 16.79375,2.41875 15.7875,1.36875 C18,1.9 19.975,3.05 21.525,4.61875 L21.525,4.61875 Z M10.175,1.38125 C9.16875,2.425 8.31875,4.01875 7.71875,5.9625 C6.5875,5.61875 5.50625,5.16875 4.48125,4.61875 C6.0125,3.05625 7.975,1.9125 10.175,1.38125 L10.175,1.38125 Z M4.475,21.375 C5.5,20.825 6.5875,20.375 7.7125,20.03125 C8.31875,21.98125 9.16875,23.56875 10.175,24.61875 C7.975,24.0875 6.0125,22.94375 4.475,21.375 L4.475,21.375 Z M15.7875,24.63125 C16.8,23.58125 17.65,21.9875 18.2625,20.025 C19.40625,20.36875 20.49375,20.825 21.53125,21.375 C19.98125,22.95 18,24.1 15.7875,24.63125 L15.7875,24.63125 Z" id="Shape"></path>
            </g>
        </g>
    </g>
</svg>