<?xml version="1.0" encoding="UTF-8" standalone="no"?>
<svg
   xmlns:dc="http://purl.org/dc/elements/1.1/"
   xmlns:cc="http://creativecommons.org/ns#"
   xmlns:rdf="http://www.w3.org/1999/02/22-rdf-syntax-ns#"
   xmlns:svg="http://www.w3.org/2000/svg"
   xmlns="http://www.w3.org/2000/svg"
   xmlns:sodipodi="http://sodipodi.sourceforge.net/DTD/sodipodi-0.dtd"
   xmlns:inkscape="http://www.inkscape.org/namespaces/inkscape"
   version="1.1"
   x="0px"
   y="0px"
   viewBox="0 0 100 125"
   enable-background="new 0 0 100 100"
   xml:space="preserve"
   id="svg2"
   inkscape:version="0.91 r13725"
   sodipodi:docname="noun_77705_cc.svg"><metadata
     id="metadata14"><rdf:RDF><cc:Work
         rdf:about=""><dc:format>image/svg+xml</dc:format><dc:type
           rdf:resource="http://purl.org/dc/dcmitype/StillImage" /></cc:Work></rdf:RDF></metadata><defs
     id="defs12" /><sodipodi:namedview
     pagecolor="#ffffff"
     bordercolor="#666666"
     borderopacity="1"
     objecttolerance="10"
     gridtolerance="10"
     guidetolerance="10"
     inkscape:pageopacity="0"
     inkscape:pageshadow="2"
     inkscape:window-width="640"
     inkscape:window-height="480"
     id="namedview10"
     showgrid="false"
     inkscape:zoom="1.888"
     inkscape:cx="50"
     inkscape:cy="62.5"
     inkscape:window-x="0"
     inkscape:window-y="23"
     inkscape:window-maximized="0"
     inkscape:current-layer="svg2" /><path
     d="M42.9,32.3L25.3,14.6l-3.8,3.8c-3.7,3.7-5.7,8.6-5.7,13.8s2,10.1,5.7,13.8l32.4,32.4c3.7,3.7,8.6,5.7,13.8,5.7  c5.2,0,10.1-2,13.8-5.7l3.8-3.8L67.7,57.1l-1.8,1.8c-1.4,1.4-3.3,2.2-5.3,2.2s-3.9-0.8-5.3-2.2L41.2,44.7c-2.9-2.9-2.9-7.7,0-10.6  L42.9,32.3z M78,75.1c-2.8,2.8-6.4,4.3-10.3,4.3c-3.9,0-7.6-1.5-10.3-4.3L24.9,42.6c-2.8-2.8-4.3-6.4-4.3-10.3s1.5-7.6,4.3-10.3  l0.3-0.3L36,32.5c-1.3,2-2.1,4.4-2.1,6.9c0,3.3,1.3,6.5,3.7,8.8l14.1,14.1c2.4,2.4,5.5,3.7,8.8,3.7c2.5,0,4.9-0.7,6.9-2.1l10.8,10.8  L78,75.1z"
     id="path4" /></svg>