<?xml version="1.0" encoding="UTF-8" standalone="no"?>
<svg
   xmlns:dc="http://purl.org/dc/elements/1.1/"
   xmlns:cc="http://creativecommons.org/ns#"
   xmlns:rdf="http://www.w3.org/1999/02/22-rdf-syntax-ns#"
   xmlns:svg="http://www.w3.org/2000/svg"
   xmlns="http://www.w3.org/2000/svg"
   xmlns:sodipodi="http://sodipodi.sourceforge.net/DTD/sodipodi-0.dtd"
   xmlns:inkscape="http://www.inkscape.org/namespaces/inkscape"
   version="1.0"
   x="0px"
   y="0px"
   viewBox="0 0 89 90"
   enable-background="new 0 0 100 100"
   xml:space="preserve"
   id="svg4304"
   inkscape:version="0.91 r13725"
   sodipodi:docname="team-lb.svg"
   width="89"
   height="90"><metadata
     id="metadata4316"><rdf:RDF><cc:Work
         rdf:about=""><dc:format>image/svg+xml</dc:format><dc:type
           rdf:resource="http://purl.org/dc/dcmitype/StillImage" /><dc:title /></cc:Work></rdf:RDF></metadata><defs
     id="defs4314" /><sodipodi:namedview
     pagecolor="#ffffff"
     bordercolor="#666666"
     borderopacity="1"
     objecttolerance="10"
     gridtolerance="10"
     guidetolerance="10"
     inkscape:pageopacity="0"
     inkscape:pageshadow="2"
     inkscape:window-width="1017"
     inkscape:window-height="699"
     id="namedview4312"
     showgrid="false"
     inkscape:zoom="1.888"
     inkscape:cx="-42.161017"
     inkscape:cy="62.5"
     inkscape:window-x="0"
     inkscape:window-y="0"
     inkscape:window-maximized="0"
     inkscape:current-layer="svg4304" /><path
     d="m 70.944037,55.798194 c 2.771012,-3.130569 4.348191,-7.196154 4.348191,-11.466934 0,-9.540932 -7.762299,-17.303227 -17.303231,-17.303227 -3.991085,0 -7.660457,1.371518 -10.591079,3.650074 -1.098183,-0.681797 -2.237576,-1.310893 -3.431881,-1.857913 2.770546,-3.130568 4.34819,-7.196156 4.34819,-11.466935 0,-9.5409305 -7.762295,-17.3032255 -17.30323,-17.3032255 -9.540936,0 -17.303227,7.762295 -17.303227,17.3032255 0,4.270779 1.577643,8.336832 4.348192,11.466935 C 7.1626329,33.810074 0.08912715,44.645577 0.08912715,56.912289 l 0,1.84066 1.78050145,0.468674 c 9.4621204,2.488411 19.2670024,3.750343 29.1427694,3.750343 1.420192,0 2.838169,-0.0337 4.254631,-0.08575 -5.15252,5.565581 -8.199902,12.971534 -8.199902,21.003608 l 0,1.84066 1.780037,0.468682 c 9.461651,2.488875 19.267002,3.750801 29.143234,3.750801 9.876232,0 19.680187,-1.261925 29.140438,-3.751267 l 1.780037,-0.468216 0,-1.84066 c -10e-7,-12.266248 -7.07351,-23.10175 -17.966836,-28.09163 z M 4.9279119,55.070698 C 5.6679999,44.317737 12.852961,35.153145 23.274816,31.92931 l 4.707276,-1.45593 -4.059523,-2.791999 c -3.406177,-2.342913 -5.439438,-6.203775 -5.439438,-10.328122 0,-6.907952 5.619913,-12.5278645 12.527865,-12.5278645 6.907951,0 12.527867,5.6199125 12.527867,12.5278645 0,4.124347 -2.03326,7.985209 -5.438969,10.328122 l -4.059059,2.791999 4.70681,1.45593 c 1.858032,0.574767 3.607697,1.3461 5.241764,2.273891 -2.068527,2.851227 -3.303638,6.344142 -3.303638,10.128059 0,4.270313 1.57764,8.336365 4.348659,11.466934 -1.205444,0.552152 -2.355564,1.187077 -3.463073,1.87645 -12.254586,1.165452 -24.74532,0.302892 -36.6434452,-2.603946 z M 31.905913,82.04823 c 0.557396,-8.098351 4.772854,-15.293168 11.271416,-19.73037 2.129852,-1.454239 4.50296,-2.614792 7.075489,-3.410549 l 4.70681,-1.455929 -2.103268,-1.446713 -1.955791,-1.345287 c -3.406174,-2.34338 -5.439434,-6.204243 -5.439434,-10.328121 0,-2.768799 0.913856,-5.322033 2.440609,-7.398083 0.960205,-1.305527 2.164127,-2.415661 3.548469,-3.267555 1.9063,-1.173088 4.140904,-1.862228 6.538784,-1.862228 6.907959,0 12.52787,5.619911 12.52787,12.527866 0,4.123878 -2.033264,7.984741 -5.438972,10.328121 l -3.148171,2.16605 -0.910423,0.626419 0.913567,0.282605 3.792778,1.172854 c 10.421386,3.223836 17.606353,12.388898 18.346908,23.142323 -16.989379,4.149062 -35.183792,4.148589 -52.166641,-0.0014 z"
     id="path4306"
     inkscape:connector-curvature="0"
     style="fill:#4d9de0;fill-opacity:1" /></svg>