<?xml version="1.0" encoding="UTF-8" standalone="no"?>
<svg
   xmlns:dc="http://purl.org/dc/elements/1.1/"
   xmlns:cc="http://creativecommons.org/ns#"
   xmlns:rdf="http://www.w3.org/1999/02/22-rdf-syntax-ns#"
   xmlns:svg="http://www.w3.org/2000/svg"
   xmlns="http://www.w3.org/2000/svg"
   xmlns:sodipodi="http://sodipodi.sourceforge.net/DTD/sodipodi-0.dtd"
   xmlns:inkscape="http://www.inkscape.org/namespaces/inkscape"
   version="1.1"
   x="0px"
   y="0px"
   viewBox="0 0 73 70"
   enable-background="new 0 0 100 100"
   xml:space="preserve"
   id="svg11941"
   inkscape:version="0.91 r13725"
   sodipodi:docname="noun_136901_cc.svg"
   width="73"
   height="70"><metadata
     id="metadata11955"><rdf:RDF><cc:Work
         rdf:about=""><dc:format>image/svg+xml</dc:format><dc:type
           rdf:resource="http://purl.org/dc/dcmitype/StillImage" /><dc:title></dc:title></cc:Work></rdf:RDF></metadata><defs
     id="defs11953" /><sodipodi:namedview
     pagecolor="#ffffff"
     bordercolor="#666666"
     borderopacity="1"
     objecttolerance="10"
     gridtolerance="10"
     guidetolerance="10"
     inkscape:pageopacity="0"
     inkscape:pageshadow="2"
     inkscape:window-width="1440"
     inkscape:window-height="851"
     id="namedview11951"
     showgrid="false"
     inkscape:zoom="1.888"
     inkscape:cx="50"
     inkscape:cy="62.5"
     inkscape:window-x="0"
     inkscape:window-y="1"
     inkscape:window-maximized="1"
     inkscape:current-layer="svg11941" /><g
     id="g11943"
     style="opacity:0.95;fill:#3498db;fill-opacity:1;stroke:#3498db;stroke-opacity:1"
     transform="translate(-13.4995,-14.999425)"><path
       d="m 62.25,15.641 c -0.169,0.027 -0.339,0.113 -0.479,0.226 l -45.25,45.314 c -0.423,-0.62 -0.677,-1.382 -0.677,-2.2 l 0,-21.445 c 0.028,-0.479 -0.479,-0.903 -0.958,-0.818 -0.367,0.085 -0.621,0.451 -0.621,0.818 l 0,21.444 c 0,3.075 2.51,5.586 5.582,5.586 l 21.427,0 c 0.423,0.028 0.79,-0.366 0.79,-0.79 0,-0.423 -0.367,-0.79 -0.79,-0.79 l -21.426,0 c -0.816,0 -1.578,-0.254 -2.198,-0.677 L 62.899,16.994 c 0.451,-0.451 0.057,-1.382 -0.564,-1.354 -0.028,10e-4 -0.057,10e-4 -0.085,10e-4 l 0,0 z m -3.693,19.807 c -0.423,0.028 -0.762,0.451 -0.733,0.847 0.057,0.423 0.451,0.762 0.874,0.733 l 21.427,0 c 0.846,0 1.578,0.254 2.227,0.677 L 37.074,82.992 c -0.311,0.311 -0.311,0.847 0,1.156 0.281,0.282 0.846,0.282 1.127,0 L 83.45,38.834 c 0.423,0.621 0.677,1.383 0.677,2.201 l 0,21.443 c 0,0.424 0.395,0.818 0.79,0.818 0.423,0 0.817,-0.395 0.817,-0.818 l 0,-21.443 c 0,-3.076 -2.51,-5.587 -5.61,-5.587 l -21.427,0 c -0.028,0 -0.056,0 -0.084,0 0,0 -0.028,0 -0.056,0 l 0,0 z"
       id="path11945"
       style="fill:#3498db;fill-opacity:1;stroke:#3498db;stroke-opacity:1"
       inkscape:connector-curvature="0" /></g></svg>