<?xml version="1.0" encoding="UTF-8" standalone="no"?>
<svg width="26px" height="29px" viewBox="0 0 26 29" version="1.1" xmlns="http://www.w3.org/2000/svg" xmlns:xlink="http://www.w3.org/1999/xlink">
    <!-- Generator: Sketch 3.7.2 (28276) - http://www.bohemiancoding.com/sketch -->
    <title>noun_97186_cc</title>
    <desc>Created with Sketch.</desc>
    <defs></defs>
    <g id="Payment-methods" stroke="none" stroke-width="1" fill="none" fill-rule="evenodd">
        <g id="Desktop" transform="translate(-150.000000, -272.000000)" fill="#85C1EA">
            <g id="noun_97186_cc" transform="translate(150.000000, 272.000000)">
                <g id="Group">
                    <g>
                        <path d="M25.5517241,28.6896552 L0,28.6896552 L0,25.1034483 L25.5517241,25.1034483 L25.5517241,28.6896552 L25.5517241,28.6896552 Z M0.896551724,27.7931034 L24.6551724,27.7931034 L24.6551724,26 L0.896551724,26 L0.896551724,27.7931034 L0.896551724,27.7931034 Z" id="Shape"></path>
                        <path d="M25.7758621,11.2068966 L0.224137931,11.2068966 L0.224137931,7.84482759 L11.162069,0.537931034 C11.6551724,0.224137931 12.2827586,0.0448275862 13,0.0448275862 C13.7172414,0.0448275862 14.3448276,0.224137931 14.7931034,0.537931034 L25.7758621,7.84482759 L25.7758621,11.2068966 L25.7758621,11.2068966 Z M1.12068966,10.3103448 L24.8793103,10.3103448 L24.8793103,8.29310345 L14.3,1.25517241 C13.9862069,1.03103448 13.4931034,0.94137931 13,0.94137931 C12.5068966,0.94137931 12.0137931,1.07586207 11.6551724,1.25517241 L1.12068966,8.29310345 L1.12068966,10.3103448 L1.12068966,10.3103448 Z" id="Shape"></path>
                        <path d="M8.06896552,26 L2.24137931,26 L2.24137931,22.862069 L8.06896552,22.862069 L8.06896552,26 L8.06896552,26 Z M3.13793103,25.1034483 L7.17241379,25.1034483 L7.17241379,23.7586207 L3.13793103,23.7586207 L3.13793103,25.1034483 L3.13793103,25.1034483 Z" id="Shape"></path>
                        <path d="M8.06896552,13.4482759 L2.24137931,13.4482759 L2.24137931,10.3103448 L8.06896552,10.3103448 L8.06896552,13.4482759 L8.06896552,13.4482759 Z M3.13793103,12.5517241 L7.17241379,12.5517241 L7.17241379,11.2068966 L3.13793103,11.2068966 L3.13793103,12.5517241 L3.13793103,12.5517241 Z" id="Shape"></path>
                        <path d="M7.17241379,23.7586207 L3.13793103,23.7586207 L3.13793103,12.5517241 L7.17241379,12.5517241 L7.17241379,23.7586207 L7.17241379,23.7586207 Z M4.03448276,22.862069 L6.27586207,22.862069 L6.27586207,13.4482759 L4.03448276,13.4482759 L4.03448276,22.862069 L4.03448276,22.862069 Z" id="Shape"></path>
                        <path d="M15.6896552,26 L9.86206897,26 L9.86206897,22.862069 L15.6896552,22.862069 L15.6896552,26 L15.6896552,26 Z M10.7586207,25.1034483 L14.7931034,25.1034483 L14.7931034,23.7586207 L10.7586207,23.7586207 L10.7586207,25.1034483 L10.7586207,25.1034483 Z" id="Shape"></path>
                        <path d="M15.6896552,13.4482759 L9.86206897,13.4482759 L9.86206897,10.3103448 L15.6896552,10.3103448 L15.6896552,13.4482759 L15.6896552,13.4482759 Z M10.7586207,12.5517241 L14.7931034,12.5517241 L14.7931034,11.2068966 L10.7586207,11.2068966 L10.7586207,12.5517241 L10.7586207,12.5517241 Z" id="Shape"></path>
                        <path d="M14.7931034,23.7586207 L10.7586207,23.7586207 L10.7586207,12.5517241 L14.7931034,12.5517241 L14.7931034,23.7586207 L14.7931034,23.7586207 Z M11.6551724,22.862069 L13.8965517,22.862069 L13.8965517,13.4482759 L11.6551724,13.4482759 L11.6551724,22.862069 L11.6551724,22.862069 Z" id="Shape"></path>
                        <path d="M23.3103448,26 L17.4827586,26 L17.4827586,22.862069 L23.3103448,22.862069 L23.3103448,26 L23.3103448,26 Z M18.3793103,25.1034483 L22.4137931,25.1034483 L22.4137931,23.7586207 L18.3793103,23.7586207 L18.3793103,25.1034483 L18.3793103,25.1034483 Z" id="Shape"></path>
                        <path d="M23.3103448,13.4482759 L17.4827586,13.4482759 L17.4827586,10.3103448 L23.3103448,10.3103448 L23.3103448,13.4482759 L23.3103448,13.4482759 Z M18.3793103,12.5517241 L22.4137931,12.5517241 L22.4137931,11.2068966 L18.3793103,11.2068966 L18.3793103,12.5517241 L18.3793103,12.5517241 Z" id="Shape"></path>
                        <path d="M22.4137931,23.7586207 L18.3793103,23.7586207 L18.3793103,12.5517241 L22.4137931,12.5517241 L22.4137931,23.7586207 L22.4137931,23.7586207 Z M19.2758621,22.862069 L21.5172414,22.862069 L21.5172414,13.4482759 L19.2758621,13.4482759 L19.2758621,22.862069 L19.2758621,22.862069 Z" id="Shape"></path>
                        <rect id="Rectangle-path" x="0.448275862" y="7.62068966" width="24.6551724" height="0.896551724"></rect>
                    </g>
                </g>
            </g>
        </g>
    </g>
</svg>