<?xml version="1.0" encoding="UTF-8" standalone="no"?>
<svg
   xmlns:dc="http://purl.org/dc/elements/1.1/"
   xmlns:cc="http://creativecommons.org/ns#"
   xmlns:rdf="http://www.w3.org/1999/02/22-rdf-syntax-ns#"
   xmlns:svg="http://www.w3.org/2000/svg"
   xmlns="http://www.w3.org/2000/svg"
   xmlns:sodipodi="http://sodipodi.sourceforge.net/DTD/sodipodi-0.dtd"
   xmlns:inkscape="http://www.inkscape.org/namespaces/inkscape"
   version="1.1"
   x="0px"
   y="0px"
   viewBox="0 0 90 80"
   enable-background="new 0 0 100 100"
   xml:space="preserve"
   id="svg4235"
   inkscape:version="0.91 r13725"
   sodipodi:docname="warning-yellow.svg"
   width="90"
   height="80"><metadata
     id="metadata4251"><rdf:RDF><cc:Work
         rdf:about=""><dc:format>image/svg+xml</dc:format><dc:type
           rdf:resource="http://purl.org/dc/dcmitype/StillImage" /><dc:title></dc:title></cc:Work></rdf:RDF></metadata><defs
     id="defs4249" /><sodipodi:namedview
     pagecolor="#ffffff"
     bordercolor="#666666"
     borderopacity="1"
     objecttolerance="10"
     gridtolerance="10"
     guidetolerance="10"
     inkscape:pageopacity="0"
     inkscape:pageshadow="2"
     inkscape:window-width="1427"
     inkscape:window-height="868"
     id="namedview4247"
     showgrid="false"
     inkscape:zoom="5.192"
     inkscape:cx="55.758667"
     inkscape:cy="59.44819"
     inkscape:window-x="0"
     inkscape:window-y="0"
     inkscape:window-maximized="0"
     inkscape:current-layer="svg4235" /><path
     d="m 44.992296,23.594762 c -1.104,0 -2,0.896 -2,2 l 0,25 c 0,1.104 0.896,2 2,2 1.104,0 2,-0.896 2,-2 l 0,-25 c 0,-1.104 -0.896,-2 -2,-2 z"
     id="path4237"
     style="fill:#e0bc28;fill-opacity:1"
     inkscape:connector-curvature="0" /><path
     d="m 44.992296,57.594762 c -1.104,0 -2,0.896 -2,2 l 0,4 c 0,1.104 0.896,2 2,2 1.104,0 2,-0.896 2,-2 l 0,-4 c 0,-1.104 -0.896,-2 -2,-2 z"
     id="path4239"
     style="fill:#e0bc28;fill-opacity:1"
     inkscape:connector-curvature="0" /><path
     d="m 50.407296,3.4847616 c -1.131,-1.958 -3.155,-3.12599999 -5.415,-3.12599999 -2.26,0 -4.284,1.16799999 -5.415,3.12599999 L 0.93529584,70.413762 c -1.13,1.958 -1.13,4.196 0,6.153 1.12999996,1.958 3.15499996,3.028 5.41499996,3.028 l 77.2840002,0 c 2.26,0 4.285,-1.07 5.415,-3.027 1.13,-1.958 1.13,-4.245 0,-6.203 l -38.642,-66.8800004 z m 35.178,71.0830004 c -0.196,0.338 -0.778,1.027 -1.951,1.027 l -77.2840002,0 c -1.173,0 -1.755,-0.689 -1.951,-1.027 -0.196,-0.338 -0.587,-1.186 0,-2.203 L 43.042296,5.4597616 c 0.586,-1.017 1.56,-1.114 1.95,-1.114 0.39,0 1.364,0.116 1.951,1.132 l 38.642,66.8830004 c 0.587,1.017 0.195,1.868 0,2.207 z"
     id="path4241"
     style="fill:#e0bc28;fill-opacity:1"
     inkscape:connector-curvature="0" /></svg>