<?xml version="1.0" standalone="no"?>
<!DOCTYPE svg PUBLIC "-//W3C//DTD SVG 20010904//EN"
 "http://www.w3.org/TR/2001/REC-SVG-20010904/DTD/svg10.dtd">
<svg version="1.0" xmlns="http://www.w3.org/2000/svg"
 width="346.000000pt" height="346.000000pt" viewBox="0 0 346.000000 346.000000"
 preserveAspectRatio="xMidYMid meet">
<metadata>
Created by potrace 1.11, written by Peter Selinger 2001-2013
</metadata>
<g transform="translate(0.000000,346.000000) scale(0.100000,-0.100000)"
fill="#000000" stroke="none">
<path d="M1505 3299 c-171 -18 -407 -97 -570 -190 -135 -77 -258 -175 -376
-296 -211 -218 -343 -472 -411 -786 -18 -84 -22 -135 -22 -297 -1 -205 8 -280
50 -426 49 -172 165 -409 260 -531 66 -85 224 -253 238 -253 12 0 64 92 234
412 l99 187 -39 52 c-139 186 -206 428 -179 653 30 249 152 470 342 620 177
140 344 195 638 208 l55 3 54 100 c107 199 252 482 252 492 0 12 -127 38 -255
53 -104 11 -255 11 -370 -1z"/>
<path d="M2752 2890 c-11 -17 -129 -238 -277 -516 l-43 -80 30 -45 c51 -74
116 -220 137 -308 30 -126 35 -229 17 -348 -46 -304 -225 -552 -497 -689 -114
-57 -215 -84 -364 -98 l-120 -11 -48 -90 c-182 -338 -269 -517 -257 -525 34
-21 197 -35 395 -34 193 0 220 2 330 28 316 73 568 216 791 448 320 333 476
762 443 1218 -28 384 -193 745 -461 1007 -60 60 -64 62 -76 43z"/>
</g>
</svg>
