<?xml version="1.0" standalone="no"?>
<!DOCTYPE svg PUBLIC "-//W3C//DTD SVG 20010904//EN"
 "http://www.w3.org/TR/2001/REC-SVG-20010904/DTD/svg10.dtd">
<svg version="1.0" xmlns="http://www.w3.org/2000/svg"
 width="300.000000pt" height="300.000000pt" viewBox="0 0 300.000000 300.000000"
 preserveAspectRatio="xMidYMid meet">
<metadata>
Created by potrace 1.11, written by Peter Selinger 2001-2013
</metadata>
<g transform="translate(0.000000,300.000000) scale(0.100000,-0.100000)"
fill="#000000" stroke="none">
<path d="M2481 2508 c-12 -24 -27 -52 -34 -63 -35 -56 -75 -123 -89 -150 -8
-16 -161 -277 -338 -580 -177 -302 -332 -566 -343 -585 -69 -122 -190 -327
-198 -334 -31 -33 -15 -34 662 -34 l671 0 38 82 c88 191 129 374 135 591 7
303 -81 602 -254 861 -57 85 -204 254 -221 254 -4 0 -17 -19 -29 -42z"/>
<path d="M147 2108 c-59 -124 -107 -271 -122 -378 -4 -25 -11 -70 -15 -100 -7
-50 -5 -316 3 -365 15 -89 21 -119 37 -180 64 -241 184 -458 356 -644 l32 -34
13 27 c8 14 86 149 173 299 88 149 196 335 241 412 45 77 106 183 137 235 30
52 94 160 140 240 47 80 133 228 193 330 59 102 113 195 121 208 l14 22 -644
0 -645 0 -34 -72z"/>
</g>
</svg>
