<?xml version="1.0" encoding="utf-8"?>
<!-- Generator: Adobe Illustrator 19.1.0, SVG Export Plug-In . SVG Version: 6.00 Build 0)  -->
<svg version="1.1" id="Layer_1" xmlns="http://www.w3.org/2000/svg" xmlns:xlink="http://www.w3.org/1999/xlink" x="0px" y="0px"
	 viewBox="0 0 147.2 105.2" enable-background="new 0 0 147.2 105.2" xml:space="preserve">
<g>
	<polygon fill="#98D0F1" points="68.2,49 66.7,46.4 36.4,63.9 6.2,46.3 4.7,48.9 34.4,66.2 34.4,74.4 38.4,74.4 38.4,66.2 	"/>
	<polygon fill="#98D0F1" points="105.2,25 103.7,22.4 73.4,39.9 43.2,22.3 41.7,24.9 71.9,42.5 71.9,50.4 74.9,50.4 74.9,42.4 	"/>
	<polygon fill="#98D0F1" points="106.2,73 104.7,70.4 74.4,87.9 44.2,70.3 42.7,72.9 72.9,90.6 72.9,98.5 75.9,98.5 75.9,90.5 	"/>
	<polygon fill="#98D0F1" points="143.2,49 141.7,46.4 111.4,63.9 81.2,46.3 79.7,48.9 109.9,66.5 109.9,74.4 112.9,74.4 112.9,66.5 
			"/>
	<path fill="#3C76BC" d="M111.1,25.3l-3.7,2.1v-6.5L73.2,1.3L39.4,20.8v6.4l-3.3-1.9L2.5,44.9v13.4l34.1,20.9l3.9-2.4v5.5l34.1,20.9
		l33.9-20.8v-5.2l3.1,1.9l33.9-20.8V45L111.1,25.3z M45.4,24.3L73.2,8.2l28.3,16.2v6.5l-28,15.7l-28-16V24.3z M77.4,51.2L77.4,51.2
		L77.4,51.2L77.4,51.2z M36.6,72.1L8.5,54.9v-6.6l27.7-16.1l28.3,16.2V55L36.6,72.1z M102.4,79.1L74.5,96.2L46.4,79v-5.6l27.7-17
		l6.3,3.8l22,13.5V79.1z M139.4,55l-27.9,17.1l-3.1-1.9v-0.2L83.5,55l-0.1,0v-6.6l27.7-16.1l28.3,16.2V55z"/>
</g>
</svg>
