<?xml version="1.0" encoding="utf-8"?>
<!-- Generator: Adobe Illustrator 19.1.0, SVG Export Plug-In . SVG Version: 6.00 Build 0)  -->
<svg version="1.1" id="Layer_1" xmlns="http://www.w3.org/2000/svg" xmlns:xlink="http://www.w3.org/1999/xlink" x="0px" y="0px"
	 viewBox="0 0 147.2 105.2" enable-background="new 0 0 147.2 105.2" xml:space="preserve">
<g>
	<path fill="#3C76BC" d="M73.8,85.3l-0.2-0.2c-0.3-0.6-0.2-1-0.1-1.4c0.2-0.7,0.4-1.4,0.7-2c0.3-0.7,0.5-1.3,0.8-1.9
		c0.2-0.6,0.5-1.2,0.7-1.8c0.2-0.4,0.3-0.8,0.5-1.2c0,0,1-2.2,1.2-2.7l0.1-0.2c0.2-0.5,0.4-0.9,0.6-1.4c0.1-0.2,0.1-0.4,0.2-0.7
		l0.2-0.7c0.1-0.3,0.2-0.6,0.2-0.8c0.3-0.9,0.5-1.6,0.8-2.2c0.2-0.6,0.4-1.1,0.7-1.6l0.1-0.1c0.1-0.2,0.3-0.2,0.6-0.2
		c0.1,0,0.2,0,0.2,0l0.3,0.1l0.4,0.3l0.1,0.3c0.1,0.5,0,0.9,0,1.2c-0.1,0.7-0.3,1.4-0.6,2c-0.2,0.5-0.4,1-0.7,1.5l-0.4,0.8
		c-0.2,0.4-0.4,0.8-0.5,1.2c0,0.1-0.1,0.3-0.1,0.4l0.2-0.3c0.3-0.4,0.5-0.7,0.8-1c0.1-0.2,0.3-0.2,0.4-0.3c0.1-0.1,0.2-0.1,0.3-0.2
		l0.6,0l0.5,0.3l0.2,0.3l0,0.1c0.1,0.3,0.2,0.6,0.2,1c-0.1,1.1-0.1,2.1-0.2,3c0.1-0.1,0.2-0.2,0.4-0.4l0.1-0.1
		c0.2-0.2,0.3-0.4,0.5-0.5c0,0,0.8-1,1.1-1.3l1.1-1.3c0.3-0.3,0.5-0.6,0.8-0.9c0.3-0.4,0.7-0.7,1-1.1l0.4-0.4
		c0.1-0.1,0.3-0.3,0.4-0.4c0.1-0.1,0.3-0.2,0.4-0.3c0.1,0,0.2-0.1,0.3-0.1l0.5,0.1l0.4,0.3l0.2,0.3c0.1,0.5,0,0.9-0.2,1.3
		c-0.1,0.2-0.2,0.5-0.3,0.7c0.3-0.3,0.5-0.5,0.8-0.8c0.2-0.2,0.3-0.3,0.6-0.5c0.1-0.1,0.3-0.2,0.4-0.2l0.1-0.1l0.5,0l0.5,0.3
		l0.2,0.3c0,0,0,0,0,0c0.2-0.1,0.3-0.2,0.5-0.3c0.1,0,0.2-0.1,0.3-0.1l0.6,0l0.4,0.3l0.2,0.3l0.1,0.5l0,0.2l0,0.2l-0.1,0.2
		c-0.1,0.1-0.2,0.2-0.4,0.2c-0.1,0-0.2,0.1-0.3,0.2c0,0-0.2,0.2-0.2,0.2c-0.4,0.4-0.9,0.7-1.6,0.8c0,0-0.1,0-0.1,0
		c-0.3,0-0.6-0.1-0.8-0.3c0,0-0.1-0.1-0.1-0.1l-2.5,2.7c-0.2,0.2-0.5,0.4-0.8,0.5c-0.1,0-0.2,0.1-0.3,0.1l-0.1,0c-0.1,0-0.2,0-0.2,0
		l-0.4-0.2l-0.3-0.4l-0.1-0.4l0-0.1c0-0.2,0.1-0.3,0.1-0.5c0.1-0.1,0.1-0.3,0.2-0.4L85.2,77c-0.3,0.3-0.5,0.6-0.7,0.9
		c-0.1,0.1-0.2,0.2-0.3,0.3c-0.2,0.2-0.4,0.4-0.6,0.7l-0.2,0.2c-0.1,0.1-0.3,0.3-0.4,0.4l-0.1,0.1c-0.3,0.2-0.6,0.4-1,0.4l-0.1,0
		l-0.1,0c-0.3,0-0.5-0.1-0.7-0.3c-0.2-0.2-0.3-0.4-0.4-0.7c0-0.2,0-0.4,0-0.6c0.1-0.8,0.2-1.6,0.3-2.4c0-0.1,0-0.1,0-0.2
		c0,0,0,0.1-0.1,0.1c-0.3,0.3-0.5,0.7-0.8,1.2c-0.3,0.5-0.6,1-1,1.5l-0.3,0.5c-0.1,0.2-0.2,0.3-0.3,0.5c-0.1,0.2-0.1,0.5-0.2,0.8
		l-0.1,0.4c-0.1,0.4-0.1,0.8-0.2,1.3c0,0.2,0,0.5,0,0.7l0,0.4l-0.5,0.5l-0.4,0l-0.4-0.2c-0.1-0.1-0.2-0.2-0.2-0.3l-0.2,0.4
		c-0.1,0.3-0.3,0.5-0.4,0.8c-0.1,0.2-0.3,0.5-0.4,0.7c-0.2,0.2-0.4,0.3-0.5,0.3l-0.6,0L73.8,85.3z"/>
	<path fill="#3C76BC" d="M77.3,77.5c-0.4,1-0.9,2.1-1.3,3.2c0.2-0.4,0.4-0.7,0.6-1.1c0.2-0.3,0.4-0.7,0.5-1.1
		C77.2,78.1,77.3,77.8,77.3,77.5z"/>
	<g>
		<polygon fill="#3C76BC" points="34.5,5 34.5,45.5 40.5,26.2 40.5,11 106.3,11 106.3,94.3 40.5,94.3 40.5,46.1 34.5,65.4 
			34.5,100.3 112.3,100.3 112.3,5 		"/>
		<path fill="#98D0F1" d="M42.5,14.8l-1,3.1l-3.4-1.1l-4.8,15.5l2.3,3.1l1-3.7L40,20.6l0.6,0.2L22.2,79.9l0.7,0.2l-0.7,2.2l7.1,2.2
			l0.7-2.2l0.7,0.2L51,17.5L42.5,14.8z M28.8,78.8L26,77.9l12.7-40.8l2.8,0.9L28.8,78.8z M39.6,34.2l4-12.7l2.8,0.9l-4,12.7
			L39.6,34.2z"/>
	</g>
	<g>
		<rect x="53.8" y="28.4" fill="#98D0F1" width="3" height="8"/>
		<path fill="#98D0F1" d="M61.4,36.5c-2.3,0-4.1-1.8-4.1-4.1s1.8-4.1,4.1-4.1c2.3,0,4.1,1.8,4.1,4.1S63.6,36.5,61.4,36.5z
			 M61.4,31.3c-0.6,0-1.1,0.5-1.1,1.1c0,0.6,0.5,1.1,1.1,1.1s1.1-0.5,1.1-1.1C62.4,31.8,62,31.3,61.4,31.3z"/>
		<rect x="65.8" y="28.4" fill="#98D0F1" width="3" height="8"/>
		<path fill="#98D0F1" d="M73.4,36.5c-2.3,0-4.1-1.8-4.1-4.1s1.8-4.1,4.1-4.1c2.3,0,4.1,1.8,4.1,4.1S75.6,36.5,73.4,36.5z
			 M73.4,31.3c-0.6,0-1.1,0.5-1.1,1.1c0,0.6,0.5,1.1,1.1,1.1s1.1-0.5,1.1-1.1C74.4,31.8,74,31.3,73.4,31.3z"/>
		<rect x="77.8" y="28.4" fill="#98D0F1" width="3" height="8"/>
		<rect x="89.8" y="28.4" fill="#98D0F1" width="3" height="8"/>
		<rect x="93.8" y="28.4" fill="#98D0F1" width="3" height="8"/>
		<rect x="97.8" y="28.4" fill="#98D0F1" width="3" height="8"/>
		<rect x="91.6" y="40.3" fill="#98D0F1" width="3" height="8"/>
		<path fill="#98D0F1" d="M85.4,36.5c-2.3,0-4.1-1.8-4.1-4.1s1.8-4.1,4.1-4.1c2.3,0,4.1,1.8,4.1,4.1S87.6,36.5,85.4,36.5z
			 M85.4,31.3c-0.6,0-1.1,0.5-1.1,1.1c0,0.6,0.5,1.1,1.1,1.1s1.1-0.5,1.1-1.1C86.4,31.8,86,31.3,85.4,31.3z"/>
		<path fill="#98D0F1" d="M57.4,48.4c-2.3,0-4.1-1.8-4.1-4.1c0-2.3,1.8-4.1,4.1-4.1c2.3,0,4.1,1.8,4.1,4.1
			C61.4,46.5,59.6,48.4,57.4,48.4z M57.4,43.2c-0.6,0-1.1,0.5-1.1,1.1c0,0.6,0.5,1.1,1.1,1.1s1.1-0.5,1.1-1.1
			C58.4,43.7,58,43.2,57.4,43.2z"/>
		<path fill="#98D0F1" d="M66.4,48.4c-2.3,0-4.1-1.8-4.1-4.1c0-2.3,1.8-4.1,4.1-4.1c2.3,0,4.1,1.8,4.1,4.1
			C70.4,46.5,68.6,48.4,66.4,48.4z M66.4,43.2c-0.6,0-1.1,0.5-1.1,1.1c0,0.6,0.5,1.1,1.1,1.1s1.1-0.5,1.1-1.1
			C67.4,43.7,67,43.2,66.4,43.2z"/>
		<rect x="70.8" y="40.3" fill="#98D0F1" width="3" height="8"/>
		<path fill="#98D0F1" d="M78.4,48.4c-2.3,0-4.1-1.8-4.1-4.1c0-2.3,1.8-4.1,4.1-4.1c2.3,0,4.1,1.8,4.1,4.1
			C82.4,46.5,80.6,48.4,78.4,48.4z M78.4,43.2c-0.6,0-1.1,0.5-1.1,1.1c0,0.6,0.5,1.1,1.1,1.1s1.1-0.5,1.1-1.1
			C79.4,43.7,79,43.2,78.4,43.2z"/>
		<path fill="#98D0F1" d="M86.4,48.4c-2.3,0-4.1-1.8-4.1-4.1c0-2.3,1.8-4.1,4.1-4.1c2.3,0,4.1,1.8,4.1,4.1
			C90.4,46.5,88.6,48.4,86.4,48.4z M86.4,43.2c-0.6,0-1.1,0.5-1.1,1.1c0,0.6,0.5,1.1,1.1,1.1s1.1-0.5,1.1-1.1
			C87.4,43.7,87,43.2,86.4,43.2z"/>
		<rect x="91.8" y="52.2" fill="#98D0F1" width="3" height="8"/>
		<rect x="57.4" y="52.2" fill="#98D0F1" width="3" height="8"/>
		<rect x="61.4" y="52.2" fill="#98D0F1" width="3" height="8"/>
		<rect x="53.8" y="52.2" fill="#98D0F1" width="3" height="8"/>
		<path fill="#98D0F1" d="M69.4,60.2c-2.3,0-4.1-1.8-4.1-4.1c0-2.3,1.8-4.1,4.1-4.1c2.3,0,4.1,1.8,4.1,4.1
			C73.4,58.4,71.6,60.2,69.4,60.2z M69.4,55.1c-0.6,0-1.1,0.5-1.1,1.1s0.5,1.1,1.1,1.1s1.1-0.5,1.1-1.1S70,55.1,69.4,55.1z"/>
		<path fill="#98D0F1" d="M78.1,60.2c-2.3,0-4.1-1.8-4.1-4.1c0-2.3,1.8-4.1,4.1-4.1s4.1,1.8,4.1,4.1C82.2,58.4,80.3,60.2,78.1,60.2z
			 M78.1,55.1c-0.6,0-1.1,0.5-1.1,1.1s0.5,1.1,1.1,1.1s1.1-0.5,1.1-1.1S78.7,55.1,78.1,55.1z"/>
		<path fill="#98D0F1" d="M86.8,60.2c-2.3,0-4.1-1.8-4.1-4.1c0-2.3,1.8-4.1,4.1-4.1s4.1,1.8,4.1,4.1C90.9,58.4,89.1,60.2,86.8,60.2z
			 M86.8,55.1c-0.6,0-1.1,0.5-1.1,1.1s0.5,1.1,1.1,1.1s1.1-0.5,1.1-1.1S87.4,55.1,86.8,55.1z"/>
	</g>
</g>
</svg>
