<?xml version="1.0" encoding="utf-8"?>
<!-- Generator: Adobe Illustrator 19.1.0, SVG Export Plug-In . SVG Version: 6.00 Build 0)  -->
<svg version="1.1" id="Layer_1" xmlns="http://www.w3.org/2000/svg" xmlns:xlink="http://www.w3.org/1999/xlink" x="0px" y="0px"
	 viewBox="0 0 147.2 105.2" enable-background="new 0 0 147.2 105.2" xml:space="preserve">
<path fill="#98D0F1" d="M123.3,53.7v-3h-19.8c-0.1-8.2-1.4-16-3.6-22.7c4-2,7.6-4.5,10.7-7.5l-2.1-2.2c-2.8,2.7-6,5-9.6,6.8
	C94,11.9,85.6,3.2,76.1,3.2c-9.4,0-17.7,8.6-22.6,21.5c-3.6-2-6.9-4.4-9.7-7.2l-2.1,2.1c3.1,3.2,6.8,5.8,10.8,8
	c-2.2,6.8-3.5,14.7-3.7,23H29v3h19.8c0.1,8.2,1.4,16,3.6,22.7c-4,2-7.6,4.5-10.7,7.5l2.1,2.2c2.8-2.7,6-5,9.6-6.8
	c4.9,13.2,13.3,21.9,22.8,21.9c9.4,0,17.7-8.6,22.6-21.5c3.6,2,6.9,4.4,9.7,7.2l2.1-2.1c-3.1-3.2-6.8-5.8-10.8-8
	c2.2-6.8,3.5-14.7,3.7-23H123.3z M100.4,50.7H77.6V33.4c6.9-0.1,13.6-1.6,19.6-4.2C99.1,35.6,100.3,42.9,100.4,50.7z M96.2,26.4
	c-5.7,2.5-12.1,3.9-18.6,4.1V6.3C85.4,7.2,92.1,15,96.2,26.4z M74.6,6.3v24.1c-6.6-0.2-12.9-1.7-18.5-4.3C60.2,14.8,67,7.2,74.6,6.3
	z M55.1,29c5.9,2.7,12.6,4.2,19.5,4.5v17.3H51.8C51.9,42.8,53.1,35.4,55.1,29z M51.8,53.7h22.8v17.2c-6.9,0.1-13.6,1.6-19.6,4.2
	C53.1,68.8,51.9,61.5,51.8,53.7z M56,78c5.7-2.5,12.1-3.9,18.6-4.1V98C66.9,97.1,60.1,89.4,56,78z M77.6,98V74
	c6.6,0.2,12.9,1.7,18.5,4.3C92,89.5,85.3,97.2,77.6,98z M97.1,75.4c-5.9-2.7-12.6-4.2-19.5-4.5V53.7h22.8
	C100.3,61.6,99.1,69,97.1,75.4z"/>
<path fill="#3C76BC" d="M76.1,102.4c-27.7,0-50.2-22.5-50.2-50.2C25.9,24.5,48.4,2,76.1,2c27.7,0,50.2,22.5,50.2,50.2
	C126.3,79.9,103.8,102.4,76.1,102.4z M76.1,8C51.8,8,31.9,27.8,31.9,52.2s19.8,44.2,44.2,44.2s44.2-19.8,44.2-44.2S100.5,8,76.1,8z"
	/>
</svg>
