<?xml version="1.0" encoding="UTF-8" standalone="no"?>
<svg width="462px" height="496px" viewBox="0 0 462 496" version="1.1" xmlns="http://www.w3.org/2000/svg" xmlns:xlink="http://www.w3.org/1999/xlink">
    <!-- Generator: Sketch 39.1 (31720) - http://www.bohemiancoding.com/sketch -->
    <title>noun_585566_cc</title>
    <desc>Created with Sketch.</desc>
    <defs></defs>
    <g id="Page-1" stroke="none" stroke-width="1" fill="none" fill-rule="evenodd">
        <g id="noun_585566_cc" fill="#0591E2">
            <g id="Group">
                <path d="M280.002,252.902 L279.092,253.926 C277.385,255.747 275.678,257.453 273.744,259.046 C272.151,260.184 270.9,261.549 269.762,262.914 L266.348,265.985 L266.804,267.351 L266.804,269.513 C266.576,271.902 266.576,273.267 266.69,274.746 L266.69,289.081 C266.69,295.452 266.69,301.937 266.576,308.422 C266.462,312.177 265.893,315.817 264.87,319.571 C264.642,320.367 264.301,321.278 263.96,322.301 C262.709,325.487 261.344,328.103 259.864,330.379 C259.295,331.062 258.726,331.858 258.043,332.541 C255.54,335.613 253.151,337.775 250.535,339.481 C246.78,341.757 243.595,343.122 239.841,344.259 L237.338,344.828 C235.404,345.283 233.129,345.283 231.536,345.283 C228.92,345.283 226.644,345.283 224.028,344.714 L222.663,344.372 C218.454,343.121 215.154,341.756 212.31,339.935 L211.059,339.139 C208.897,337.774 206.509,335.612 204.119,332.881 C203.323,331.857 202.64,331.061 202.185,330.265 C200.592,328.103 199.341,325.487 198.203,322.529 C197.748,321.278 197.293,320.367 197.066,319.343 C196.042,315.703 195.473,312.062 195.473,308.308 C195.359,301.937 195.359,295.452 195.359,289.081 L195.359,275.542 C195.473,273.266 195.473,271.787 195.359,270.422 L194.79,265.189 L192.287,262.913 C191.149,261.548 189.898,260.183 188.305,258.931 C186.371,257.452 184.664,255.746 183.072,254.039 L182.048,252.902 C169.42,237.088 164.983,217.747 169.875,198.52 C170.671,195.335 171.696,192.263 172.833,189.305 L173.402,188.054 C175.905,182.366 179.318,177.132 183.3,172.468 L184.096,171.558 C185.12,170.307 187.054,168.6 188.988,166.894 L190.923,165.187 C192.743,163.594 194.45,162.457 196.27,161.205 C197.294,160.522 197.977,160.067 198.773,159.612 C218.939,148.096 243.227,147.417 263.28,159.612 C264.076,160.067 264.645,160.522 265.328,160.977 C267.49,162.342 269.31,163.593 270.903,164.959 L272.724,166.551 C274.999,168.599 276.82,170.306 278.526,172.239 L279.322,173.149 C282.735,177.131 286.035,182.364 288.537,187.939 L289.106,189.304 C290.358,192.262 291.382,195.334 292.178,198.519 C296.953,217.747 292.631,237.088 280.002,252.902 L280.002,252.902 Z" id="Shape"></path>
                <path d="M426.316,65.405 C421.028,64.965 415.959,64.303 410.67,63.864 C398.33,62.542 386.652,61.439 375.414,59.457 C332.886,51.525 293.662,34.557 255.542,7.894 C241.88,-2.022 225.354,-2.683 210.37,6.572 L206.183,9.437 C196.046,15.827 186.351,21.997 176.655,27.065 C136.11,48.878 90.718,61.438 38.494,65.185 C4.559,67.829 0.813,94.051 0.813,104.628 C0.592,111.679 0.592,118.731 0.813,125.782 L0.813,135.917 C1.254,170.292 4.338,201.142 9.847,230.229 C19.984,280.91 36.51,323.879 60.749,361.779 C96.446,417.75 148.009,461.82 214.336,492.669 C219.404,494.873 225.133,495.975 231.083,495.975 C238.354,495.975 245.405,494.212 250.693,491.127 C327.156,447.497 383.346,387.562 418.163,312.641 C445.928,252.485 460.029,184.174 461.353,103.526 C461.352,86.118 450.114,67.609 426.316,65.405 L426.316,65.405 Z M389.957,299.641 C356.685,371.476 303.579,425.022 235.27,464.025 C233.066,465.347 229.32,465.347 227.117,464.246 C169.384,437.583 121.346,399.021 87.192,345.255 C63.393,308.015 48.851,267.25 40.257,224.281 C34.748,194.974 32.325,165.226 31.883,135.479 C31.883,125.563 31.664,115.426 31.883,105.291 C31.883,97.578 32.986,96.697 40.698,96.256 C93.803,92.29 144.264,79.729 191.42,54.609 C203.539,47.999 215.217,40.287 227.117,32.794 C230.863,30.37 233.727,30.37 237.473,33.015 C277.578,61.221 321.428,80.831 369.685,89.867 C387.313,92.951 405.162,94.274 422.791,96.257 C427.418,96.698 430.282,98.02 430.282,103.529 C429.18,171.396 418.604,237.502 389.957,299.641 L389.957,299.641 Z" id="Shape"></path>
            </g>
        </g>
    </g>
</svg>