<?xml version="1.0" encoding="UTF-8"?>
<svg width="42px" height="45px" viewBox="0 0 42 45" version="1.1" xmlns="http://www.w3.org/2000/svg" xmlns:xlink="http://www.w3.org/1999/xlink">
    <!-- Generator: Sketch 50.2 (55047) - http://www.bohemiancoding.com/sketch -->
    <title>lock</title>
    <desc>Created with Sketch.</desc>
    <defs></defs>
    <g id="Page-1" stroke="none" stroke-width="1" fill="none" fill-rule="evenodd">
        <g id="OpenZeppelin" transform="translate(-120.000000, -920.000000)" fill="#000000" fill-rule="nonzero">
            <g id="lock" transform="translate(120.000000, 920.000000)">
                <path d="M25.4547273,22.9447379 L25.372,23.0376411 C25.2168182,23.2028528 25.0616364,23.357631 24.8858182,23.5021573 C24.741,23.6054032 24.6272727,23.729244 24.5238182,23.8530847 L24.2134545,24.1317036 L24.2549091,24.2556351 L24.2549091,24.4517843 C24.2341818,24.6685282 24.2341818,24.792369 24.2445455,24.9265524 L24.2445455,26.2271069 C24.2445455,26.805121 24.2445455,27.3934778 24.2341818,27.9818347 C24.2238182,28.3225101 24.1720909,28.652752 24.0790909,28.9933367 C24.0583636,29.0655544 24.0273636,29.1482056 23.9963636,29.2410181 C23.8826364,29.5300706 23.7585455,29.7674093 23.624,29.9739012 C23.5722727,30.0358669 23.5205455,30.1080847 23.4584545,30.1700504 C23.2309091,30.4487601 23.0137273,30.6449093 22.7759091,30.7996875 C22.4345455,31.0061794 22.145,31.1300202 21.8037273,31.2331754 L21.5761818,31.2847984 C21.4003636,31.3260786 21.1935455,31.3260786 21.0487273,31.3260786 C20.8109091,31.3260786 20.604,31.3260786 20.3661818,31.2744556 L20.2420909,31.2434274 C19.8594545,31.1299294 19.5594545,31.0060887 19.3009091,30.840877 L19.1871818,30.7686593 C18.9906364,30.6448185 18.7735455,30.4486694 18.5562727,30.2008972 C18.4839091,30.107994 18.4218182,30.0357762 18.3804545,29.9635585 C18.2356364,29.7674093 18.1219091,29.5300706 18.0184545,29.2617036 C17.9770909,29.1482056 17.9357273,29.0655544 17.9150909,28.9726512 C17.822,28.6424093 17.7702727,28.3120766 17.7702727,27.9714919 C17.7599091,27.3934778 17.7599091,26.805121 17.7599091,26.2271069 L17.7599091,24.9987702 C17.7702727,24.7922782 17.7702727,24.6580948 17.7599091,24.534254 L17.7081818,24.0594859 L17.4806364,23.852994 C17.3771818,23.7291532 17.2634545,23.6053125 17.1186364,23.4917238 C16.9428182,23.3575403 16.7876364,23.2027621 16.6429091,23.0478931 L16.5498182,22.9447379 C15.4018182,21.51 14.9984545,19.7552722 15.4431818,18.0108871 C15.5155455,17.7219254 15.6087273,17.4432157 15.7120909,17.1748488 L15.7638182,17.0613508 C15.9913636,16.5453024 16.3016364,16.0704435 16.6636364,15.6472984 L16.736,15.5647379 C16.8290909,15.4512399 17.0049091,15.296371 17.1807273,15.1415927 L17.3566364,14.9867238 C17.5220909,14.8421976 17.6772727,14.7390423 17.8427273,14.6254536 C17.9358182,14.5634879 17.9979091,14.5222077 18.0702727,14.4809274 C19.9035455,13.436129 22.1115455,13.3745262 23.9345455,14.4809274 C24.0069091,14.5222077 24.0586364,14.5634879 24.1207273,14.6047681 C24.3172727,14.7286089 24.4827273,14.8421069 24.6275455,14.9660383 L24.7930909,15.1104738 C24.9999091,15.2962802 25.1654545,15.4511492 25.3205455,15.6265222 L25.3929091,15.7090827 C25.7031818,16.0703528 26.0031818,16.545121 26.2306364,17.0509173 L26.2823636,17.1747581 C26.3961818,17.443125 26.4892727,17.7218347 26.5616364,18.0107964 C26.9957273,19.7552722 26.6028182,21.51 25.4547273,22.9447379 Z" id="Shape"></path>
                <path d="M38.756,5.93392137 C38.2752727,5.89400202 37.8144545,5.83394153 37.3336364,5.7941129 C36.2118182,5.67417339 35.1501818,5.57410282 34.1285455,5.39428427 C30.2623636,4.67464718 26.6965455,3.13521169 23.2310909,0.716189516 C21.9890909,-0.183447581 20.4867273,-0.243417339 19.1245455,0.59625 L18.7439091,0.856179435 C17.8223636,1.43591734 16.941,1.99569556 16.0595455,2.45549395 C12.3736364,4.43449597 8.24709091,5.5740121 3.49945455,5.91396169 C0.414454545,6.15384073 0.0739090909,8.53285282 0.0739090909,9.49245968 C0.0538181818,10.1321673 0.0538181818,10.7719657 0.0739090909,11.4116734 L0.0739090909,12.3311794 C0.114,15.449879 0.394363636,18.2487702 0.895181818,20.8877117 C1.81672727,25.4857863 3.31909091,29.3841835 5.52263636,32.8226915 C8.76781818,37.9007056 13.4553636,41.8989919 19.4850909,44.6977923 C19.9458182,44.897752 20.4666364,44.9977319 21.0075455,44.9977319 C21.6685455,44.9977319 22.3095455,44.8377823 22.7902727,44.5578931 C29.7414545,40.5995262 34.8496364,35.161875 38.0148182,28.3646069 C40.5389091,22.9069052 41.8208182,16.7093347 41.9411818,9.39247984 C41.9410909,7.813125 40.9194545,6.13388105 38.756,5.93392137 Z M36.2135107,27.3779761 C33.0407437,34.1635549 27.9766369,39.2215434 21.4627953,42.9057911 C21.2526252,43.030668 20.8954124,43.030668 20.6853377,42.9266669 C15.1800072,40.4080633 10.5991771,36.7654728 7.34230399,31.6867029 C5.07286781,28.1689893 3.68616496,24.318302 2.86665428,20.2594235 C2.34132448,17.4910661 2.11027091,14.6810515 2.06812247,11.8711313 C2.06812247,10.9344598 2.04723896,9.97691247 2.06812247,9.01955405 C2.06812247,8.29097927 2.17330286,8.20775946 2.90870737,8.16610233 C7.97271883,7.7914715 12.7846025,6.60495162 17.2813264,4.23210078 C18.4369757,3.60771606 19.5505719,2.87923574 20.6853377,2.17144229 C21.0425505,1.94246974 21.3156572,1.94246974 21.67287,2.19231809 C25.4972214,4.85667441 29.6786902,6.70904722 34.2804038,7.56259341 C35.9613829,7.85390997 37.6634362,7.97888138 39.3445106,8.16619679 C39.7857343,8.20785392 40.0588409,8.33273087 40.0588409,8.85311444 C39.9537559,15.2638735 38.9452447,21.5082874 36.2135107,27.3779761 Z" id="Shape"></path>
            </g>
        </g>
    </g>
</svg>