<?xml version="1.0" encoding="UTF-8"?>
<svg width="202px" height="25px" viewBox="0 0 202 25" version="1.1" xmlns="http://www.w3.org/2000/svg" xmlns:xlink="http://www.w3.org/1999/xlink">
    <!-- Generator: Sketch 50.2 (55047) - http://www.bohemiancoding.com/sketch -->
    <title>logo</title>
    <desc>Created with Sketch.</desc>
    <defs></defs>
    <g id="Page-1" stroke="none" stroke-width="1" fill="none" fill-rule="evenodd">
        <g id="OpenZeppelin" transform="translate(-120.000000, -23.000000)">
            <g id="logo" transform="translate(120.000000, 23.000000)">
                <path d="M31.7340082,20.3488057 C32.9981063,17.9925955 33.7177313,15.3029459 33.7177313,12.4443471 C33.7177313,7.59450637 31.654263,3.22555732 28.3553025,0.159156051 L26.4850446,3.34530255 L16.5041032,20.3488057 L31.7340082,20.3488057 Z" id="Fill-1" fill="#5AA5FF"></path>
                <path d="M2.06091139,4.39762739 C0.748870253,6.78743631 0,9.52820064 0,12.4444427 C0,17.076449 1.88160443,21.2702389 4.92470886,24.3090924 L16.585894,4.39762739 L2.06091139,4.39762739 Z" id="Fill-4" fill="#5AA5FF"></path>
                <path d="M47.0144612,17.5865924 C47.7503869,18.6461465 48.7399312,19.1756051 49.983254,19.1756051 C51.2260973,19.1756051 52.2158014,18.6461465 52.9517271,17.5865924 C53.6878125,16.5271975 54.0558552,15.3373885 54.0558552,14.0174841 C54.0558552,12.6971019 53.6878125,11.5079299 52.9517271,10.4477389 C52.2158014,9.38882166 51.2260973,8.85872611 49.983254,8.85872611 C48.7399312,8.85872611 47.7503869,9.38882166 47.0144612,10.4477389 C46.2783758,11.5079299 45.9103331,12.6971019 45.9103331,14.0174841 C45.9103331,15.3373885 46.2783758,16.5271975 47.0144612,17.5865924 M49.983254,20.5203503 C48.2656147,20.5203503 46.8998774,19.8803822 45.8858821,18.6010828 C44.8715672,17.3219427 44.3646495,15.793758 44.3646495,14.0174841 C44.3646495,12.2412102 44.8715672,10.7130255 45.8858821,9.43324841 C46.8998774,8.15410828 48.2656147,7.51414013 49.983254,7.51414013 C51.6841131,7.51414013 53.0456954,8.15410828 54.0683204,9.43324841 C55.0903062,10.7130255 55.6015388,12.2412102 55.6015388,14.0174841 C55.6015388,15.793758 55.0903062,17.3219427 54.0683204,18.6010828 C53.0456954,19.8803822 51.6841131,20.5203503 49.983254,20.5203503" id="Fill-6" fill="#5AA5FF"></path>
                <path d="M65.4644924,19.1756847 C66.6747345,19.1756847 67.5947614,18.6379459 68.2245731,17.5618312 C68.8540652,16.4863535 69.1692108,15.2885828 69.1692108,13.9686783 C69.1692108,12.6645382 68.8540652,11.4869904 68.2245731,10.4357166 C67.5947614,9.38444268 66.6747345,8.85880573 65.4644924,8.85880573 C64.1885684,8.85880573 63.2030193,9.37664013 62.5078453,10.4115127 C61.8123516,11.4463854 61.465244,12.6481369 61.465244,14.0174045 C61.465244,15.3861943 61.8123516,16.5885828 62.5078453,17.6228185 C63.2030193,18.6581688 64.1885684,19.1756847 65.4644924,19.1756847 Z M60.1156475,24.8467038 L60.1156475,7.88109873 L61.5632076,7.88109873 L61.5632076,9.73921975 L61.6124291,9.73921975 C62.4301775,8.25625796 63.7139323,7.51421975 65.4644924,7.51421975 C67.0996696,7.51421975 68.3797487,8.15020701 69.3040905,9.42122611 C70.2281127,10.6928822 70.6902835,12.1922452 70.6902835,13.9196338 C70.6902835,15.630621 70.2242772,17.1588057 69.2917851,18.5032325 C68.3596127,19.8479777 67.0836886,20.5202707 65.4644924,20.5202707 C64.5973627,20.5202707 63.8652725,20.3368312 63.2685415,19.969793 C62.671331,19.603551 62.119187,19.0290287 61.6124291,18.2462261 L61.5632076,18.2462261 L61.5632076,24.8467038 L60.1156475,24.8467038 Z" id="Fill-8" fill="#5AA5FF"></path>
                <path d="M76.3576301,13.112914 L84.0862076,13.112914 C84.0862076,11.7923726 83.7549212,10.7538376 83.0925082,9.99571656 C82.4299354,9.23775478 81.4525367,8.85877389 80.1604718,8.85877389 C78.9499101,8.85877389 78.0139022,9.27071656 77.3513294,10.0934873 C76.6889165,10.9168949 76.3576301,11.9231051 76.3576301,13.112914 M80.1604718,20.5203981 C78.9339291,20.5203981 77.8948437,20.193965 77.044494,19.5420541 C76.1939845,18.890621 75.5972535,18.0957166 75.2535019,17.1587739 C74.9100699,16.221672 74.7384339,15.1907803 74.7384339,14.066258 C74.7384339,12.1922134 75.1961301,10.6312261 76.1123215,9.38441083 C77.0281934,8.13759554 78.3694797,7.5141879 80.1358611,7.5141879 C83.8162883,7.5141879 85.6563421,9.75574841 85.6563421,14.2372771 L85.6563421,14.3597293 L76.3085684,14.3597293 C76.3410098,15.7938057 76.672456,16.9549522 77.3022677,17.8431688 C77.9317598,18.7318631 78.9419196,19.1756529 80.3324275,19.1756529 C81.2318389,19.1756529 82.0168263,18.9229459 82.6875494,18.4175318 C83.3582725,17.912914 83.7672266,17.2686465 83.9144117,16.4864809 L85.4356443,16.4864809 C85.1738753,17.7904618 84.5929655,18.788551 83.6937139,19.4810669 C82.7936633,20.173742 81.6163421,20.5203981 80.1604718,20.5203981" id="Fill-10" fill="#5AA5FF"></path>
                <path d="M90.6614195,20.153328 L90.6614195,7.88103503 L92.1088198,7.88103503 L92.1088198,9.6902707 L92.1577217,9.73931529 C92.9099479,8.25619427 94.169891,7.51415605 95.9362723,7.51415605 C97.3263008,7.51415605 98.3813672,7.97880573 99.1013119,8.90762739 C99.8209369,9.83692675 100.180989,11.0267357 100.180989,12.4773726 L100.180989,20.153328 L98.733429,20.153328 L98.733429,12.2323089 C98.733429,11.2222771 98.4512043,10.4076274 97.8869147,9.78820064 C97.3224653,9.16861465 96.5496236,8.85874204 95.5683894,8.85874204 C94.4722517,8.85874204 93.6215824,9.27450637 93.0167011,10.1055573 C92.4113403,10.9372452 92.1088198,11.9313535 92.1088198,13.0882006 L92.1088198,20.153328 L90.6614195,20.153328 Z" id="Fill-12" fill="#5AA5FF"></path>
                <polygon id="Fill-14" fill="#1A1A1A" points="104.744144 20.153328 104.744144 18.808742 111.785538 9.22578025 104.744144 9.22578025 104.744144 7.88103503 113.503017 7.88103503 113.503017 9.22578025 106.510685 18.808742 113.503017 18.808742 113.503017 20.153328"></polygon>
                <path d="M118.532769,13.112914 L126.261187,13.112914 C126.261187,11.7923726 125.93006,10.7538376 125.267807,9.99571656 C124.605074,9.23775478 123.627676,8.85877389 122.335611,8.85877389 C121.125049,8.85877389 120.189041,9.27071656 119.526468,10.0934873 C118.864055,10.9168949 118.532769,11.9231051 118.532769,13.112914 M122.335611,20.5203981 C121.109068,20.5203981 120.069983,20.193965 119.219633,19.5420541 C118.369123,18.890621 117.772392,18.0957166 117.428641,17.1587739 C117.085209,16.221672 116.913573,15.1907803 116.913573,14.066258 C116.913573,12.1922134 117.371269,10.6312261 118.28746,9.38441083 C119.203332,8.13759554 120.544619,7.5141879 122.31116,7.5141879 C125.991427,7.5141879 127.831641,9.75574841 127.831641,14.2372771 L127.831641,14.3597293 L118.483707,14.3597293 C118.516149,15.7938057 118.847595,16.9549522 119.477407,17.8431688 C120.106899,18.7318631 121.117059,19.1756529 122.507566,19.1756529 C123.406978,19.1756529 124.191965,18.9229459 124.862688,18.4175318 C125.533411,17.912914 125.942366,17.2686465 126.089551,16.4864809 L127.610783,16.4864809 C127.348854,17.7904618 126.768104,18.788551 125.868853,19.4810669 C124.968802,20.173742 123.791481,20.5203981 122.335611,20.5203981" id="Fill-16" fill="#1A1A1A"></path>
                <path d="M137.915196,19.1756847 C139.125438,19.1756847 140.045465,18.6379459 140.675277,17.5618312 C141.304929,16.4863535 141.619915,15.2885828 141.619915,13.9686783 C141.619915,12.6645382 141.304929,11.4869904 140.675277,10.4357166 C140.045465,9.38444268 139.125438,8.85880573 137.915196,8.85880573 C136.639432,8.85880573 135.653723,9.37664013 134.958549,10.4115127 C134.263215,11.4463854 133.915948,12.6481369 133.915948,14.0174045 C133.915948,15.3861943 134.263215,16.5885828 134.958549,17.6228185 C135.653723,18.6581688 136.639432,19.1756847 137.915196,19.1756847 Z M132.566351,24.8467038 L132.566351,7.88109873 L134.014071,7.88109873 L134.014071,9.73921975 L134.063133,9.73921975 C134.880881,8.25625796 136.164796,7.51421975 137.915196,7.51421975 C139.550374,7.51421975 140.830453,8.15020701 141.754954,9.42122611 C142.678976,10.6928822 143.140988,12.1922452 143.140988,13.9196338 C143.140988,15.630621 142.674981,17.1588057 141.742489,18.5032325 C140.810317,19.8479777 139.534552,20.5202707 137.915196,20.5202707 C137.048067,20.5202707 136.315976,20.3368312 135.719405,19.969793 C135.122035,19.603551 134.569891,19.0290287 134.063133,18.2462261 L134.014071,18.2462261 L134.014071,24.8467038 L132.566351,24.8467038 Z" id="Fill-18" fill="#1A1A1A"></path>
                <path d="M153.053003,19.1756847 C154.263245,19.1756847 155.183272,18.6379459 155.813084,17.5618312 C156.442735,16.4863535 156.757721,15.2885828 156.757721,13.9686783 C156.757721,12.6645382 156.442735,11.4869904 155.813084,10.4357166 C155.183272,9.38444268 154.263245,8.85880573 153.053003,8.85880573 C151.777239,8.85880573 150.79169,9.37664013 150.096516,10.4115127 C149.401022,11.4463854 149.053754,12.6481369 149.053754,14.0174045 C149.053754,15.3861943 149.401022,16.5885828 150.096516,17.6228185 C150.79169,18.6581688 151.777239,19.1756847 153.053003,19.1756847 Z M147.704318,24.8467038 L147.704318,7.88109873 L149.151878,7.88109873 L149.151878,9.73921975 L149.20094,9.73921975 C150.018688,8.25625796 151.302603,7.51421975 153.053003,7.51421975 C154.68834,7.51421975 155.968259,8.15020701 156.892761,9.42122611 C157.816783,10.6928822 158.278794,12.1922452 158.278794,13.9196338 C158.278794,15.630621 157.812788,17.1588057 156.880296,18.5032325 C155.948123,19.8479777 154.672359,20.5202707 153.053003,20.5202707 C152.185873,20.5202707 151.453783,20.3368312 150.857212,19.969793 C150.259841,19.603551 149.707697,19.0290287 149.20094,18.2462261 L149.151878,18.2462261 L149.151878,24.8467038 L147.704318,24.8467038 Z" id="Fill-20" fill="#1A1A1A"></path>
                <path d="M163.94646,13.112914 L171.675038,13.112914 C171.675038,11.7923726 171.343751,10.7538376 170.681498,9.99571656 C170.018766,9.23775478 169.041527,8.85877389 167.749302,8.85877389 C166.5389,8.85877389 165.602732,9.27071656 164.940159,10.0934873 C164.277747,10.9168949 163.94646,11.9231051 163.94646,13.112914 M167.749302,20.5203981 C166.522759,20.5203981 165.483674,20.193965 164.633484,19.5420541 C163.782815,18.890621 163.186084,18.0957166 162.842492,17.1587739 C162.4989,16.221672 162.327264,15.1907803 162.327264,14.066258 C162.327264,12.1922134 162.78496,10.6312261 163.701311,9.38441083 C164.617023,8.13759554 165.95831,7.5141879 167.724851,7.5141879 C171.405278,7.5141879 173.245332,9.75574841 173.245332,14.2372771 L173.245332,14.3597293 L163.897398,14.3597293 C163.93,15.7938057 164.261286,16.9549522 164.891098,17.8431688 C165.52075,18.7318631 166.53075,19.1756529 167.921258,19.1756529 C168.820669,19.1756529 169.605656,18.9229459 170.276379,18.4175318 C170.947103,17.912914 171.356057,17.2686465 171.503242,16.4864809 L173.024474,16.4864809 C172.762705,17.7904618 172.181796,18.788551 171.282544,19.4810669 C170.382493,20.173742 169.205172,20.5203981 167.749302,20.5203981" id="Fill-22" fill="#1A1A1A"></path>
                <polygon id="Fill-24" fill="#1A1A1A" points="178.201236 20.1533439 179.624025 20.1533439 179.624025 2.50270701 178.201236 2.50270701"></polygon>
                <path d="M185.316302,20.1533439 L186.738932,20.1533439 L186.738932,7.88105096 L185.316302,7.88105096 L185.316302,20.1533439 Z M184.94794,4.58105096 L186.861666,4.58105096 L186.861666,2.47850318 L184.94794,2.47850318 L184.94794,4.58105096 Z" id="Fill-26" fill="#1A1A1A"></path>
                <path d="M192.480526,20.153328 L192.480526,7.88103503 L193.927927,7.88103503 L193.927927,9.6902707 L193.976828,9.73931529 C194.729055,8.25619427 195.989158,7.51415605 197.755379,7.51415605 C199.145567,7.51415605 200.200794,7.97880573 200.920578,8.90762739 C201.639564,9.83692675 201.999936,11.0267357 201.999936,12.4773726 L201.999936,20.153328 L200.552536,20.153328 L200.552536,12.2323089 C200.552536,11.2222771 200.270151,10.4076274 199.705702,9.78820064 C199.141253,9.16861465 198.368411,8.85874204 197.387177,8.85874204 C196.291359,8.85874204 195.44021,9.27450637 194.835968,10.1055573 C194.230447,10.9372452 193.927927,11.9313535 193.927927,13.0882006 L193.927927,20.153328 L192.480526,20.153328 Z" id="Fill-27" fill="#1A1A1A"></path>
            </g>
        </g>
    </g>
</svg>