<?xml version="1.0" encoding="UTF-8" standalone="no"?>
<svg width="237px" height="231px" viewBox="0 0 237 231" version="1.1" xmlns="http://www.w3.org/2000/svg" xmlns:xlink="http://www.w3.org/1999/xlink">
    <!-- Generator: Sketch 39.1 (31720) - http://www.bohemiancoding.com/sketch -->
    <title>open-source</title>
    <desc>Created with Sketch.</desc>
    <defs></defs>
    <g id="Page-1" stroke="none" stroke-width="1" fill="none" fill-rule="evenodd">
        <g id="open-source" transform="translate(7.000000, 7.000000)" stroke-width="13" stroke="#0591E2">
            <g id="Page-1">
                <g id="open-source">
                    <g id="Page-1">
                        <path d="M222.699,111.414 C222.699,49.948 172.879,0.124 111.413,0.124 C49.948,0.124 0.119,49.948 0.119,111.414 C0.119,158.413 29.256,198.61 70.444,214.925 L98.598,143.787 C85.71,138.683 76.591,126.116 76.591,111.414 C76.591,92.185 92.183,76.597 111.412,76.597 C130.642,76.597 146.234,92.185 146.234,111.414 C146.234,126.116 137.106,138.684 124.227,143.787 L152.373,214.925 C193.57,198.61 222.699,158.413 222.699,111.414 L222.699,111.414 L222.699,111.414 L222.699,111.414 Z" id="Shape"></path>
                    </g>
                </g>
            </g>
        </g>
    </g>
</svg>