<svg id="Layer_1" data-name="Layer 1" xmlns="http://www.w3.org/2000/svg" viewBox="0 0 1967.76 432.25"><title>L_Zeppelin copy 2</title><polygon points="371.79 -0.24 8.4 -0.24 8.4 88.99 319.38 88.99 371.79 -0.24"/><polygon points="140.06 432.49 370.47 432.49 370.47 342.79 256.36 342.79 140.06 432.49"/><polygon points="171.1 342.79 306.29 111.39 164 152.28 0 432.49 118.69 432.49 171.1 342.79 171.1 342.79"/><path d="M530.54,281.43,634.6,139.3H530.54V119.36H660V139.3L556.65,281.43H660v19.94H530.54Z"/><path d="M710.38,211.09c0-51.85,25-97.17,79.77-97.17,60.91,0,81.58,41.7,81.58,99.71v1.81H733.59c.72,38.43,15.23,71.43,59.46,71.43,26.83,0,48.58-17,52.94-39.88h22.48c-7.61,38.43-34.81,59.82-78,59.82C732.86,306.81,710.38,257.86,710.38,211.09Zm138.14-14.14c0-37.71-18.85-63.09-58-63.09-37.34,0-56.2,29.73-56.2,63.09Z"/><path d="M941.7,119.36h21.39v27.56h.72c12.33-22.48,31.54-33,56.92-33,51.12,0,77.23,47.86,77.23,95,0,46.41-26.1,97.9-77.23,97.9-26.83,0-42.42-11.6-56.92-33.72h-.72V371H941.7Zm133.79,90.28c0-33.72-16-75.78-54.75-75.78-40.61,0-59.1,40.25-59.1,76.5s18.49,76.5,59.1,76.5C1059.9,286.86,1075.49,243.36,1075.49,209.64Z"/><path d="M1165.4,119.36h21.39v27.56h.72c12.33-22.48,31.54-33,56.92-33,51.12,0,77.23,47.86,77.23,95,0,46.41-26.1,97.9-77.23,97.9-26.83,0-42.42-11.6-56.92-33.72h-.72V371H1165.4Zm133.79,90.28c0-33.72-16-75.78-54.75-75.78-40.61,0-59.1,40.25-59.1,76.5s18.49,76.5,59.1,76.5C1283.6,286.86,1299.19,243.36,1299.19,209.64Z"/><path d="M1381.49,211.09c0-51.85,25-97.17,79.77-97.17,60.91,0,81.58,41.7,81.58,99.71v1.81H1404.69c.72,38.43,15.23,71.43,59.46,71.43,26.83,0,48.58-17,52.94-39.88h22.48c-7.61,38.43-34.81,59.82-78,59.82C1404,306.81,1381.49,257.86,1381.49,211.09Zm138.14-14.14c0-37.71-18.85-63.09-58-63.09-37.34,0-56.2,29.73-56.2,63.09Z"/><path d="M1616.06,39.59h21V301.37h-21Z"/><path d="M1715.77,39.23h28.28V70.41h-28.28Zm5.44,80.13h21v182h-21Z"/><path d="M1827.08,119.36h21.39v26.83l.72.72c11.6-22.84,33-33,55.84-33,42.78,0,62.73,33,62.73,73.6V301.37h-21.39V183.89c0-29.37-17.4-50-46.77-50-34.08,0-51.12,31.18-51.12,62.73V301.37h-21.39Z"/></svg>