<svg xmlns="http://www.w3.org/2000/svg" viewBox="0 0 468.46 100"><defs><style>.cls-1{fill:#fff;}</style></defs><title>zeppelin_logo_white</title><g id="Layer_2" data-name="Layer 2"><g id="Layer_1-2" data-name="Layer 1"><polygon id="Shape" class="cls-1" points="1.94 0 85.92 0 73.81 20.62 1.94 20.62 1.94 0"/><g id="_Group_" data-name="&lt;Group&gt;"><path id="_Path_" data-name="&lt;Path&gt;" class="cls-1" d="M42.37,85,30.27,100H85.61V79.27H56.66A20.75,20.75,0,0,0,42.37,85Z"/></g><path id="_Path_2" data-name="&lt;Path&gt;" class="cls-1" d="M72.48,22.88l-20,3A22.83,22.83,0,0,0,36.9,36.75L0,100H27.43Z"/><path class="cls-1" d="M123.42,71.54V66.75l25-34.12h-25V27.84h31.08v4.79L129.68,66.75h24.81v4.79Z"/><path class="cls-1" d="M185.83,72.85a17.59,17.59,0,0,1-11.05-3.48,18.65,18.65,0,0,1-6.35-8.49,31.89,31.89,0,0,1-1.83-11q0-10,4.87-16.67t14.28-6.66q19.59,0,19.59,23.94v.44H172.16q.17,7.66,3.53,12.4t10.75,4.74a13.47,13.47,0,0,0,8.36-2.7,10.92,10.92,0,0,0,4.35-6.88h5.4a17.15,17.15,0,0,1-6.18,10.66Q193.58,72.85,185.83,72.85ZM172.34,46.47h27.42q0-7.05-3.53-11.1t-10.4-4q-6.44,0-10,4.4A16.64,16.64,0,0,0,172.34,46.47Z"/><path class="cls-1" d="M222.13,88.25V27.84h5.14v6.61h.17q4.35-7.92,13.67-7.92a15.89,15.89,0,0,1,13.62,6.79,26.58,26.58,0,0,1,4.92,16,28,28,0,0,1-5,16.32,15.65,15.65,0,0,1-13.58,7.18,14.59,14.59,0,0,1-7.79-2,19.3,19.3,0,0,1-5.88-6.14h-.17v23.5Zm19-20.2a10.7,10.7,0,0,0,9.79-5.74,24.93,24.93,0,0,0,3.35-12.8,24.07,24.07,0,0,0-3.35-12.58,10.74,10.74,0,0,0-9.79-5.61,11.89,11.89,0,0,0-10.49,5.53,22.53,22.53,0,0,0-3.7,12.84,22.53,22.53,0,0,0,3.7,12.84A11.89,11.89,0,0,0,241.1,68.06Z"/><path class="cls-1" d="M275.83,88.25V27.84H281v6.61h.17q4.35-7.92,13.67-7.92a15.89,15.89,0,0,1,13.62,6.79,26.58,26.58,0,0,1,4.92,16,28,28,0,0,1-5,16.32,15.65,15.65,0,0,1-13.58,7.18,14.59,14.59,0,0,1-7.79-2,19.3,19.3,0,0,1-5.88-6.14H281v23.5Zm19-20.2a10.7,10.7,0,0,0,9.79-5.74A24.93,24.93,0,0,0,308,49.52a24.07,24.07,0,0,0-3.35-12.58,10.74,10.74,0,0,0-9.79-5.61,11.89,11.89,0,0,0-10.49,5.53,22.53,22.53,0,0,0-3.7,12.84,22.53,22.53,0,0,0,3.7,12.84A11.89,11.89,0,0,0,294.81,68.06Z"/><path class="cls-1" d="M346.95,72.85a17.59,17.59,0,0,1-11.05-3.48,18.65,18.65,0,0,1-6.35-8.49,31.89,31.89,0,0,1-1.83-11q0-10,4.87-16.67t14.28-6.66q19.59,0,19.59,23.94v.44H333.28q.17,7.66,3.53,12.4t10.75,4.74a13.47,13.47,0,0,0,8.36-2.7,10.92,10.92,0,0,0,4.35-6.88h5.4a17.15,17.15,0,0,1-6.18,10.66Q354.69,72.85,346.95,72.85ZM333.46,46.47h27.42q0-7.05-3.53-11.1t-10.4-4q-6.44,0-10,4.4A16.64,16.64,0,0,0,333.46,46.47Z"/><path class="cls-1" d="M384,71.54V8.69h5V71.54Z"/><path class="cls-1" d="M408,16.09V8.61h6.79v7.49Zm1.31,55.45V27.84h5v43.7Z"/><path class="cls-1" d="M434.69,71.54V27.84h5.14v6.44l.17.17q4-7.92,13.4-7.92,7.4,0,11.23,5t3.83,12.71V71.54h-5.14V43.34a12.46,12.46,0,0,0-3-8.7A11.65,11.65,0,0,0,443,35.76a17.6,17.6,0,0,0-3.22,10.62V71.54Z"/></g></g></svg>